<svg width="112" height="109" viewBox="0 0 112 109" fill="none" xmlns="http://www.w3.org/2000/svg">
<g clip-path="url(#clip0_512_970)">
<path d="M49.0272 39.8914C49.0272 41.1616 48.0589 41.8973 46.1851 41.8973H42.6387V34.4712H45.9713C47.6816 34.4712 48.6374 35.1943 48.6374 36.389C48.6374 37.1939 48.2224 37.7598 47.6376 38.0427C48.4739 38.2754 49.0272 38.9042 49.0272 39.8914ZM43.7013 35.3264V37.7032H45.877C46.9585 37.7032 47.5747 37.3008 47.5747 36.5148C47.5747 35.7288 46.9585 35.3264 45.877 35.3264H43.7013ZM47.9583 39.8034C47.9583 38.9419 47.3232 38.5646 46.1411 38.5646H43.7013V41.0358H46.1411C47.3169 41.0358 47.9583 40.6648 47.9583 39.8034Z" fill="#686868"/>
<path d="M56.3712 40.9729V41.8973H50.9824V34.4712H56.2266V35.3955H52.0451V37.678H55.7676V38.5772H52.0451V40.9729H56.3775H56.3712Z" fill="#686868"/>
<path d="M57.7168 41.0485L58.1067 40.2185C58.66 40.7153 59.6032 41.08 60.559 41.08C61.8417 41.08 62.395 40.5832 62.395 39.9356C62.395 38.1183 57.8929 39.269 57.8929 36.5086C57.8929 35.3642 58.7858 34.3833 60.735 34.3833C61.6028 34.3833 62.5082 34.616 63.1244 35.0435L62.7723 35.8924C62.1247 35.4774 61.3953 35.2888 60.735 35.2888C59.4711 35.2888 58.9304 35.817 58.9304 36.4646C58.9304 38.2818 63.4325 37.1437 63.4325 39.8727C63.4325 41.0108 62.5208 41.9854 60.559 41.9854C59.4208 41.9854 58.3079 41.6019 57.7168 41.0548V41.0485Z" fill="#686868"/>
<path d="M66.6589 35.3892H64.1123V34.4648H70.2556V35.3892H67.709V41.8972H66.6589V35.3892Z" fill="#686868"/>
<path d="M34.9669 48.9082C34.9669 51.5554 32.9359 53.228 29.7479 53.228H28.0942V56.0387H24.2334V44.5884H29.7479C32.9359 44.5884 34.9669 46.2547 34.9669 48.9082ZM31.0747 48.9082C31.0747 48.0719 30.5654 47.5689 29.5027 47.5689H28.0942V50.2538H29.5027C30.5654 50.2538 31.0747 49.7445 31.0747 48.9145V48.9082Z" fill="#686868"/>
<path d="M48.0085 44.5884V56.0387H44.1477V51.8195H40.5825V56.0387H36.7217V44.5884H40.5825V48.6441H44.1477V44.5884H48.0085Z" fill="#686868"/>
<path d="M49.9004 50.3167C49.9004 46.8457 52.6294 44.3306 56.3644 44.3306C60.0994 44.3306 62.8284 46.852 62.8284 50.3167C62.8284 53.7814 60.0994 56.3028 56.3644 56.3028C52.6294 56.3028 49.9004 53.7814 49.9004 50.3167ZM58.9299 50.3167C58.9299 48.5309 57.7855 47.4557 56.3644 47.4557C54.9433 47.4557 53.7989 48.5372 53.7989 50.3167C53.7989 52.0962 54.9433 53.1777 56.3644 53.1777C57.7855 53.1777 58.9299 52.0962 58.9299 50.3167Z" fill="#686868"/>
<path d="M67.0419 47.5814H63.6904V44.5884H74.2605V47.5814H70.909V56.0387H67.0482V47.5814H67.0419Z" fill="#686868"/>
<path d="M75.1221 50.3167C75.1221 46.8457 77.851 44.3306 81.5861 44.3306C85.3211 44.3306 88.0501 46.852 88.0501 50.3167C88.0501 53.7814 85.3211 56.3028 81.5861 56.3028C77.851 56.3028 75.1221 53.7814 75.1221 50.3167ZM84.1516 50.3167C84.1516 48.5309 83.0072 47.4557 81.5861 47.4557C80.165 47.4557 79.0206 48.5372 79.0206 50.3167C79.0206 52.0962 80.165 53.1777 81.5861 53.1777C83.0072 53.1777 84.1516 52.0962 84.1516 50.3167Z" fill="#686868"/>
<path d="M39.5567 64.3514H35.6078L34.7904 66.2063H33.6963L37.0603 58.7803H38.1104L41.4871 66.2063H40.3741L39.5567 64.3514ZM39.1857 63.5025L37.5822 59.8618L35.9788 63.5025H39.1857Z" fill="#686868"/>
<path d="M53.0014 58.7803L50.5177 66.2063H49.4047L47.38 60.2768L45.3553 66.2063H44.2171L41.7334 58.7803H42.8275L44.8334 64.8167L46.921 58.7803H47.8956L49.9455 64.8481L51.9953 58.7803H53.0014Z" fill="#686868"/>
<path d="M59.1006 64.3514H55.1518L54.3343 66.2063H53.2402L56.6043 58.7803H57.6544L61.031 66.2063H59.918L59.1006 64.3514ZM58.7296 63.5025L57.1262 59.8618L55.5228 63.5025H58.7296Z" fill="#686868"/>
<path d="M67.4069 66.2063L65.8035 63.9238C65.6526 63.9363 65.4954 63.9426 65.3382 63.9426H63.5021V66.2H62.4395V58.7739H65.3382C67.2686 58.7739 68.4382 59.7486 68.4382 61.3646C68.4382 62.509 67.8408 63.339 66.8033 63.71L68.5639 66.2063H67.4069ZM67.3755 61.3646C67.3755 60.3019 66.665 59.6983 65.3068 59.6983H63.5021V63.0434H65.3068C66.665 63.0434 67.3755 62.4272 67.3755 61.3646Z" fill="#686868"/>
<path d="M70.4629 58.7803H73.5943C75.9837 58.7803 77.606 60.2894 77.606 62.4965C77.606 64.7035 75.9837 66.2126 73.5943 66.2126H70.4629V58.7866V58.7803ZM73.5314 65.2883C75.3675 65.2883 76.5433 64.1628 76.5433 62.4965C76.5433 60.8301 75.3675 59.7046 73.5314 59.7046H71.5256V65.2883H73.5314Z" fill="#686868"/>
<path d="M36.0301 6.58408C34.7977 7.23803 33.5527 7.87311 32.3265 8.54592L30.5596 9.67775L29.6793 10.2437C29.3838 10.426 29.0882 10.6209 28.8179 10.841C26.5856 12.5199 24.4352 14.3308 22.5613 16.4121C18.776 20.5245 15.7578 25.3725 13.8274 30.6481C11.9284 35.93 11.0104 41.5514 11.0481 47.1665C11.1047 52.7817 12.1988 58.3779 14.1544 63.6409C16.0785 68.9228 19.1155 73.7708 22.8695 77.9209C26.6359 82.0647 31.1884 85.5104 36.2879 87.837C38.8346 88.994 41.4629 89.9749 44.1856 90.6351C45.5501 90.9558 46.8957 91.3268 48.2916 91.4903L50.3667 91.8047C51.0458 91.9179 51.8003 91.9808 52.5046 92.1379C55.3656 92.7039 58.082 94.0055 60.3331 95.8793C61.4838 96.7973 62.5842 97.8034 63.6342 99.017C64.678 100.237 65.5961 101.683 66.4764 103.431L66.7845 104.047C67.5831 105.619 66.948 107.543 65.376 108.342C63.804 109.141 61.8799 108.505 61.0813 106.933C60.5531 105.89 60.6538 104.689 61.2448 103.771C61.9365 102.695 62.0308 101.369 61.685 100.124C61.3391 98.8661 60.5469 97.7216 59.5534 96.7973C57.5161 94.9801 54.9632 93.7728 52.2845 93.2069C51.6054 93.056 50.9514 92.9931 50.2346 92.8673L48.1156 92.5278C46.6945 92.3517 45.3174 91.9556 43.9278 91.616C41.1548 90.9118 38.4762 89.8869 35.8855 88.6796C30.7042 86.2587 26.0889 82.6934 22.291 78.4428C18.4868 74.1921 15.5126 69.2184 13.5256 63.8799C11.5323 58.5477 10.4193 52.876 10.3501 47.1791C10.3061 41.4822 11.2242 35.779 13.1483 30.4091C15.0787 25.0455 18.0717 20.0592 21.9011 15.8211C25.7305 11.583 30.4024 8.11205 35.5208 5.55286C35.8038 5.40823 36.1496 5.5277 36.2942 5.81066C36.4326 6.08733 36.3257 6.42688 36.049 6.5715L36.0238 6.58408H36.0301Z" fill="#686868"/>
<path d="M31.9118 5.26999C31.1321 7.21296 28.3842 10.4701 28.4408 10.489C28.4345 10.5016 27.0763 6.78538 27.6926 4.7418C28.2711 2.71079 29.9437 1.14509 31.1698 1.32744C32.4022 1.50979 32.6097 3.30815 31.9181 5.2637L31.9118 5.26999Z" fill="#686868"/>
<path d="M34.1626 9.74699C32.3642 9.12448 28.4154 10.4512 28.4405 10.489C28.4531 10.489 31.2638 13.0859 32.9553 13.6015C34.6719 14.0857 36.225 13.7776 36.5897 12.7526C36.9544 11.7277 35.9484 10.3129 34.1563 9.74699H34.1626Z" fill="#686868"/>
<path d="M37.6648 3.05628C35.4388 3.93031 32.8482 7.57103 32.9174 7.57103C32.9362 7.52702 37.0297 7.5333 38.9538 6.79133C40.8716 5.98647 42.3556 4.57797 42.1104 3.50273C41.8651 2.43378 39.7964 2.16339 37.6585 3.05628H37.6648Z" fill="#686868"/>
<path d="M26.0011 7.21922C25.0642 10.4952 21.8196 16.3368 21.9516 16.3682C21.939 16.3933 18.5436 10.9354 19.0277 7.42673C19.4364 3.95578 21.9642 0.931272 24.0581 0.981576C26.1583 1.0193 26.7305 3.93062 26.0074 7.21922H26.0011Z" fill="#686868"/>
<path d="M30.5591 13.9914C27.6227 13.1865 21.8755 16.2676 21.9509 16.3682C21.9761 16.3493 27.2265 19.6442 29.8863 20.185C32.5964 20.6566 34.6966 20.0907 34.967 18.4558C35.2311 16.8398 33.4453 14.639 30.5591 13.9914Z" fill="#686868"/>
<path d="M19.5491 15.3745C19.5491 17.3363 18.2224 21.0839 18.2727 21.0839C18.2727 21.0965 15.7763 18.1223 15.6191 16.0976C15.4305 14.0917 16.3611 12.2053 17.4992 12.0355C18.6437 11.8595 19.4737 13.4189 19.5491 15.3745Z" fill="#686868"/>
<path d="M23.115 18.7762C21.3166 18.7133 18.2481 21.0461 18.2795 21.0838C18.2858 21.0775 21.7128 22.6181 23.3979 22.5992C25.102 22.5489 26.3596 21.8321 26.3218 20.8009C26.2778 19.7759 24.8945 18.7824 23.1213 18.7762H23.115Z" fill="#686868"/>
<path d="M14.9656 18.8268C15.2674 22.0525 14.211 28.3782 14.3305 28.3719C14.3305 28.4034 9.43216 24.4168 8.71533 21.0653C7.93562 17.7767 9.19322 14.2932 11.0733 13.7336C12.9597 13.1677 14.4877 15.6325 14.9656 18.8205V18.8268Z" fill="#686868"/>
<path d="M21.3853 23.6432C18.4929 23.7564 14.2485 28.29 14.3303 28.3717C14.3428 28.3466 20.2598 29.7739 22.8693 29.4721C25.504 29.0886 27.2017 27.963 26.881 26.4099C26.554 24.8693 24.2086 23.3854 21.3853 23.6369V23.6432Z" fill="#686868"/>
<path d="M11.7901 28.1955C12.4314 29.9938 12.3686 33.8672 12.4126 33.8609C12.4126 33.8735 9.16798 31.8928 8.38199 30.0756C7.57713 28.2835 7.83494 26.2651 8.82843 25.7557C9.82193 25.2464 11.0921 26.4223 11.7963 28.1955H11.7901Z" fill="#686868"/>
<path d="M16.1728 30.2395C14.5002 30.7237 12.3749 33.8299 12.4126 33.8614C12.4126 33.8488 16.0911 34.2135 17.6568 33.6727C19.2225 33.1005 20.1594 32.0567 19.7884 31.1261C19.4174 30.2018 17.8202 29.7113 16.1791 30.2458L16.1728 30.2395Z" fill="#686868"/>
<path d="M8.62069 32.7984C9.91601 35.6846 10.8152 41.9285 10.9158 41.8971C10.9158 41.9285 5.13717 39.7466 3.452 36.8415C1.73539 34.0183 1.82971 30.3901 3.40798 29.296C4.98626 28.1893 7.18704 29.9877 8.62698 32.7984H8.62069Z" fill="#686868"/>
<path d="M16.1094 35.2636C13.4622 36.2571 10.8212 41.8408 10.9155 41.8974C10.9155 41.8723 16.9205 41.3252 19.2785 40.2185C21.6365 39.0301 22.8815 37.4518 22.0892 36.1188C21.3032 34.7983 18.656 34.1507 16.1031 35.2636H16.1094Z" fill="#686868"/>
<path d="M8.46301 42.5322C9.60113 44.0099 10.6638 47.6883 10.6952 47.6695C10.6952 47.682 7.0608 46.852 5.78435 45.3869C4.50789 43.9533 4.15577 41.9726 4.94176 41.1866C5.72776 40.3943 7.27459 41.0923 8.46301 42.5322Z" fill="#686868"/>
<path d="M13.2047 43.0545C11.7711 44.0417 10.6644 47.6572 10.7021 47.6698C10.7021 47.6572 14.2862 46.8209 15.6067 45.8086C16.9209 44.7648 17.4994 43.482 16.8706 42.7275C16.2481 41.9792 14.5943 42.0232 13.2047 43.0482V43.0545Z" fill="#686868"/>
<path d="M6.81009 47.8897C8.87253 50.1974 11.482 55.8565 11.5701 55.7936C11.5826 55.8188 5.48333 55.6113 3.06876 53.3916C0.641606 51.26 -0.301587 47.7954 0.867972 46.2548C2.03753 44.7017 4.64074 45.6952 6.81009 47.8834V47.8897Z" fill="#686868"/>
<path d="M14.6011 47.8081C12.3815 49.5876 11.4635 55.7623 11.5641 55.7938C11.5641 55.7686 17.0912 53.3038 19.0153 51.4865C20.9142 49.5939 21.6374 47.7012 20.5055 46.6951C19.38 45.7016 16.6887 45.9406 14.5949 47.8081H14.6011Z" fill="#686868"/>
<path d="M9.42542 57.1956C10.922 58.2394 12.9593 61.4211 12.9907 61.3896C12.9907 61.4022 9.31224 61.7858 7.69624 60.7923C6.08023 59.8302 5.18734 58.057 5.71553 57.0447C6.23743 56.0323 7.89745 56.1958 9.43171 57.1893L9.42542 57.1956Z" fill="#686868"/>
<path d="M14.0657 56.1582C12.9842 57.5604 12.9528 61.3897 12.9968 61.396C12.9968 61.3835 16.1533 59.4216 17.1154 58.0257C18.0649 56.5983 18.2535 55.1898 17.4486 54.6679C16.6438 54.1523 15.097 54.7308 14.0657 56.1645V56.1582Z" fill="#686868"/>
<path d="M9.36316 62.8613C11.9601 64.4018 16.0661 69.0172 16.129 68.9354C16.1479 68.9606 10.3064 70.7275 7.37617 69.3693C4.46485 68.0991 2.59104 65.0746 3.27014 63.2197C3.94295 61.3522 6.69079 61.459 9.36316 62.8613Z" fill="#686868"/>
<path d="M16.7264 60.2642C15.123 62.6914 16.0222 68.9416 16.1353 68.9416C16.1228 68.9165 20.6564 64.7476 21.958 62.377C23.2156 59.9373 23.3665 57.8811 22.0083 57.2838C20.6627 56.699 18.1789 57.7931 16.7201 60.2705L16.7264 60.2642Z" fill="#686868"/>
<path d="M14.5127 70.9853C16.2293 71.5072 19.1155 73.9281 19.1406 73.8966C19.1469 73.9029 15.7577 75.4623 13.9279 75.0285C12.1107 74.6198 10.7462 73.1924 10.9474 72.048C11.1486 70.8973 12.7709 70.52 14.5127 70.9916V70.9853Z" fill="#686868"/>
<path d="M18.6055 68.4825C17.983 70.1866 19.0897 73.9027 19.1337 73.8965C19.1337 73.8839 21.542 70.9663 22.045 69.3C22.5292 67.6148 22.2903 66.1874 21.3785 65.9485C20.4668 65.7158 19.1652 66.7722 18.6055 68.4825Z" fill="#686868"/>
<path d="M16.1281 76.4873C19.0457 77.1413 24.4156 80.2978 24.4659 80.1972C24.4911 80.2098 19.4419 83.8128 16.2224 83.4418C13.047 83.1463 10.3495 80.8197 10.4438 78.8076C10.5318 76.7828 13.1665 75.9969 16.1281 76.4873Z" fill="#686868"/>
<path d="M22.3471 71.5953C21.5296 74.4626 24.3403 80.2349 24.4661 80.1972C24.4472 80.1783 27.4655 74.6701 27.9811 71.9474C28.4275 69.1744 27.9559 67.1371 26.4845 66.9988C25.032 66.8667 22.9947 68.728 22.3534 71.5953H22.3471Z" fill="#686868"/>
<path d="M23.561 82.706C25.3719 82.662 28.9686 84.083 28.9812 84.039C28.9938 84.039 26.2208 86.6485 24.3093 86.812C22.4166 87.0007 20.6434 86.0512 20.4736 84.8753C20.3039 83.6932 21.7375 82.8066 23.561 82.6997V82.706Z" fill="#686868"/>
<path d="M26.6983 78.9581C26.6417 80.813 28.9368 84.0639 28.9871 84.0387C28.9808 84.0325 30.3453 80.4169 30.2824 78.6374C30.1944 76.8453 29.509 75.5374 28.5532 75.6003C27.6038 75.6632 26.692 77.1094 26.6983 78.9581Z" fill="#686868"/>
<path d="M26.9314 87.5288C29.9559 87.2207 36.3759 88.5537 36.4136 88.4405C36.4513 88.4405 32.71 93.5652 29.4088 94.2443C26.1705 94.98 22.7625 93.5966 22.1903 91.6097C21.6055 89.6164 23.8943 88.0067 26.9314 87.5288Z" fill="#686868"/>
<path d="M31.3324 80.7757C31.4707 83.819 36.281 88.5161 36.4131 88.4407C36.3879 88.4281 37.4003 82.1087 36.9538 79.3106C36.4193 76.4747 35.2749 74.6512 33.8036 74.9845C32.3573 75.324 30.9928 77.7889 31.3261 80.7757H31.3324Z" fill="#686868"/>
<path d="M47.1283 92.4207C49.021 92.1755 53.0579 92.9049 53.0767 92.8295C53.0956 92.8295 50.8445 96.0992 48.7884 96.5834C46.7762 97.099 44.6132 96.2878 44.2233 95.0554C43.8209 93.8167 45.2294 92.7729 47.1221 92.4207H47.1283Z" fill="#686868"/>
<path d="M49.7692 88.1138C49.9076 90.019 53.0012 92.8738 53.0767 92.8235C53.0578 92.8172 53.586 88.8432 53.2653 87.0951C52.8818 85.3282 52.1335 84.209 51.2217 84.4416C50.3226 84.6806 49.5114 86.2463 49.7692 88.1075V88.1138Z" fill="#686868"/>
<path d="M76.4742 5.55308C81.5926 8.10598 86.2646 11.5769 90.0939 15.8213C93.9233 20.0594 96.9164 25.0457 98.8468 30.4093C100.771 35.7793 101.689 41.4887 101.645 47.1793C101.582 52.8762 100.463 58.5479 98.4695 63.8801C96.4888 69.2186 93.5083 74.1924 89.7041 78.443C85.9062 82.6937 81.2908 86.2589 76.1095 88.6798C73.5189 89.8871 70.8402 90.912 68.0672 91.6163C66.6776 91.9558 65.3005 92.352 63.8795 92.528L61.7604 92.8676C61.0436 92.9933 60.3834 93.0499 59.7105 93.2071C57.0319 93.773 54.4727 94.9803 52.4417 96.7975C51.4482 97.7219 50.6559 98.8663 50.3101 100.124C49.9642 101.369 50.0585 102.696 50.7502 103.771C51.6997 105.255 51.2658 107.229 49.7819 108.185C48.2979 109.134 46.3235 108.701 45.3677 107.217C44.7389 106.229 44.7138 105.028 45.2042 104.06L45.5186 103.444C46.399 101.696 47.317 100.25 48.3608 99.0297C49.4109 97.8162 50.5113 96.8101 51.662 95.8921C53.9193 94.012 56.6295 92.7104 59.4905 92.1507C60.1947 91.9935 60.9493 91.9307 61.6284 91.8175L63.7034 91.5031C65.0993 91.3459 66.4449 90.9686 67.8094 90.6479C70.5258 89.9877 73.1605 89.0005 75.7071 87.8498C80.8003 85.5232 85.3528 82.0712 89.1256 77.9337C92.8795 73.7836 95.9166 68.9356 97.8407 63.6537C99.7962 58.397 100.89 52.8007 100.947 47.1793C100.985 41.5642 100.067 35.9427 98.1677 30.6609C96.2373 25.3916 93.2253 20.5373 89.4337 16.4249C87.5599 14.3436 85.4094 12.5327 83.1772 10.8538C82.9068 10.6275 82.6176 10.4388 82.3157 10.2565L81.4354 9.69055L79.6685 8.55872C78.4424 7.88591 77.1973 7.25082 75.9649 6.59688L75.9398 6.5843C75.6568 6.43339 75.5562 6.08755 75.7008 5.80459C75.8454 5.52792 76.185 5.42103 76.4679 5.55936L76.4742 5.55308Z" fill="#686868"/>
<path d="M80.0899 5.26999C80.8696 7.21296 83.6174 10.4701 83.5608 10.489C83.5671 10.5016 84.9253 6.78538 84.3091 4.7418C83.7306 2.71079 82.058 1.14509 80.8318 1.32744C79.5994 1.50979 79.3919 3.30815 80.0836 5.2637L80.0899 5.26999Z" fill="#686868"/>
<path d="M77.8451 9.74699C79.6435 9.12448 83.5923 10.4512 83.5672 10.489C83.5546 10.489 80.7439 13.0859 79.0524 13.6015C77.3358 14.0857 75.7827 13.7776 75.418 12.7526C75.0533 11.7277 76.0593 10.3129 77.8514 9.74699H77.8451Z" fill="#686868"/>
<path d="M74.3364 3.05677C76.5623 3.9308 79.153 7.57152 79.0838 7.57152C79.0649 7.5275 74.9715 7.53379 73.0474 6.79181C71.1295 5.98696 69.6456 4.57846 69.8908 3.50322C70.1361 2.43426 72.2048 2.16388 74.3427 3.05677H74.3364Z" fill="#686868"/>
<path d="M86.001 7.21922C86.9379 10.4952 90.1825 16.3368 90.0505 16.3682C90.063 16.3933 93.4585 10.9354 92.9743 7.42673C92.5656 3.95578 90.0379 0.931272 87.9503 0.981576C85.8501 1.0193 85.2779 3.93062 86.001 7.21922Z" fill="#686868"/>
<path d="M81.4414 13.9914C84.3779 13.1865 90.1251 16.2676 90.0497 16.3682C90.0245 16.3493 84.7741 19.6442 82.1143 20.185C79.4041 20.6566 77.304 20.0907 77.0336 18.4558C76.7695 16.8398 78.5553 14.639 81.4414 13.9914Z" fill="#686868"/>
<path d="M92.4521 15.3745C92.4521 17.3363 93.7789 21.0839 93.7286 21.0839C93.7286 21.0965 96.2249 18.1223 96.3821 16.0976C96.5708 14.0917 95.6401 12.2053 94.502 12.0355C93.3576 11.8595 92.5339 13.4189 92.4521 15.3745Z" fill="#686868"/>
<path d="M88.8932 18.7762C90.6916 18.7133 93.7601 21.0461 93.7287 21.0838C93.7224 21.0775 90.2954 22.6181 88.6103 22.5992C86.9062 22.5489 85.6486 21.8321 85.6864 20.8009C85.7304 19.7759 87.1137 18.7824 88.8869 18.7762H88.8932Z" fill="#686868"/>
<path d="M97.0359 18.8268C96.7341 22.0525 97.7905 28.3782 97.671 28.3719C97.671 28.4034 102.569 24.4168 103.286 21.0653C104.066 17.7767 102.808 14.2932 100.928 13.7336C99.0355 13.1677 97.5138 15.6325 97.0359 18.8205V18.8268Z" fill="#686868"/>
<path d="M90.6223 23.6432C93.5148 23.7564 97.7592 28.29 97.6774 28.3717C97.6648 28.3466 91.7479 29.7739 89.1384 29.4721C86.5037 29.0886 84.806 27.963 85.1267 26.4099C85.4536 24.8693 87.799 23.3854 90.6223 23.6369V23.6432Z" fill="#686868"/>
<path d="M100.21 28.1955C99.569 29.9938 99.6319 33.8672 99.5879 33.8609C99.5879 33.8735 102.832 31.8928 103.625 30.0756C104.43 28.2835 104.172 26.2651 103.178 25.7557C102.185 25.2464 100.915 26.4223 100.21 28.1955Z" fill="#686868"/>
<path d="M95.8284 30.2395C97.501 30.7237 99.6263 33.8299 99.5886 33.8614C99.5886 33.8488 95.9101 34.2135 94.3444 33.6727C92.7787 33.1005 91.8418 32.0567 92.2128 31.1261C92.5838 30.2018 94.1809 29.7113 95.8221 30.2458L95.8284 30.2395Z" fill="#686868"/>
<path d="M103.381 32.7984C102.086 35.6846 101.187 41.9285 101.086 41.8971C101.086 41.9285 106.871 39.7466 108.55 36.8415C110.266 34.0183 110.172 30.3901 108.594 29.296C107.015 28.1893 104.815 29.9877 103.375 32.7984H103.381Z" fill="#686868"/>
<path d="M95.8979 35.2636C98.5451 36.2571 101.186 41.8408 101.092 41.8974C101.092 41.8723 95.0868 41.3252 92.7288 40.2185C90.3708 39.0301 89.1258 37.4518 89.9181 36.1188C90.7041 34.7983 93.3513 34.1507 95.9042 35.2636H95.8979Z" fill="#686868"/>
<path d="M103.538 42.5322C102.4 44.0099 101.337 47.6883 101.306 47.6695C101.306 47.682 104.94 46.852 106.217 45.3869C107.493 43.9533 107.845 41.9726 107.059 41.1866C106.273 40.3943 104.726 41.0923 103.538 42.5322Z" fill="#686868"/>
<path d="M98.7965 43.0545C100.23 44.0417 101.337 47.6572 101.299 47.6698C101.299 47.6572 97.715 46.8209 96.3945 45.8086C95.0803 44.7648 94.5018 43.482 95.1306 42.7275C95.7531 41.9792 97.4069 42.0232 98.7965 43.0482V43.0545Z" fill="#686868"/>
<path d="M105.192 47.8897C103.129 50.1974 100.52 55.8565 100.432 55.7936C100.419 55.8188 106.518 55.6113 108.933 53.3916C111.36 51.26 112.303 47.7954 111.134 46.2548C109.964 44.7017 107.361 45.6952 105.192 47.8834V47.8897Z" fill="#686868"/>
<path d="M97.4005 47.8081C99.6201 49.5876 100.538 55.7623 100.438 55.7938C100.438 55.7686 94.9105 53.3038 92.9863 51.4865C91.0874 49.5939 90.3643 47.7012 91.4961 46.6951C92.6216 45.7016 95.3129 45.9406 97.4068 47.8081H97.4005Z" fill="#686868"/>
<path d="M102.575 57.1956C101.079 58.2394 99.0412 61.4211 99.0098 61.3896C99.0098 61.4022 102.688 61.7858 104.304 60.7923C105.92 59.8302 106.813 58.057 106.285 57.0447C105.763 56.0323 104.103 56.1958 102.569 57.1893L102.575 57.1956Z" fill="#686868"/>
<path d="M97.9414 56.1582C99.0229 57.5604 99.0543 61.3897 99.0103 61.396C99.0103 61.3835 95.8538 59.4216 94.8917 58.0257C93.9422 56.5983 93.7536 55.1898 94.5584 54.6679C95.3633 54.1523 96.9101 54.7308 97.9414 56.1645V56.1582Z" fill="#686868"/>
<path d="M102.638 62.8613C100.041 64.4018 95.935 69.0172 95.8721 68.9354C95.8533 68.9606 101.695 70.7275 104.625 69.3693C107.536 68.0991 109.41 65.0746 108.737 63.2197C108.064 61.3522 105.317 61.459 102.644 62.8613H102.638Z" fill="#686868"/>
<path d="M95.2752 60.2642C96.8787 62.6914 95.9795 68.9416 95.8663 68.9416C95.8789 68.9165 91.3453 64.7476 90.0437 62.377C88.7861 59.9373 88.6352 57.8811 89.9933 57.2838C91.339 56.699 93.8227 57.7931 95.2815 60.2705L95.2752 60.2642Z" fill="#686868"/>
<path d="M97.4883 70.9853C95.7717 71.5072 92.8855 73.9281 92.8604 73.8966C92.8541 73.9029 96.2433 75.4623 98.0731 75.0285C99.8903 74.6198 101.255 73.1924 101.054 72.048C100.852 70.8973 99.2301 70.52 97.4883 70.9916V70.9853Z" fill="#686868"/>
<path d="M93.3945 68.4825C94.017 70.1866 92.9104 73.9027 92.8663 73.8965C92.8663 73.8839 90.4581 70.9663 89.955 69.3C89.4708 67.6148 89.7098 66.1874 90.6215 65.9485C91.5333 65.7158 92.8349 66.7722 93.3945 68.4825Z" fill="#686868"/>
<path d="M95.8721 76.4873C92.9545 77.1413 87.5846 80.2978 87.5343 80.1972C87.5091 80.2098 92.5583 83.8128 95.7778 83.4418C98.9532 83.1463 101.651 80.8197 101.556 78.8076C101.468 76.7828 98.8337 75.9969 95.8721 76.4873Z" fill="#686868"/>
<path d="M89.6536 71.5953C90.4711 74.4626 87.6604 80.2349 87.5409 80.1972C87.5598 80.1783 84.5415 74.6701 84.0259 71.9474C83.5795 69.1744 84.0511 67.1371 85.5225 66.9988C86.975 66.8667 89.0123 68.728 89.6536 71.5953Z" fill="#686868"/>
<path d="M88.4398 82.706C86.6289 82.662 83.0321 84.083 83.0196 84.039C83.007 84.039 85.78 86.6485 87.6915 86.812C89.5842 87.0007 91.3574 86.0512 91.5272 84.8753C91.6969 83.6932 90.2633 82.8066 88.4398 82.6997V82.706Z" fill="#686868"/>
<path d="M85.303 78.9586C85.3596 80.8135 83.0645 84.0644 83.0142 84.0392C83.0205 84.0329 81.656 80.4174 81.7189 78.6379C81.8069 76.8458 82.4923 75.5379 83.4481 75.6008C84.3976 75.6637 85.3093 77.1099 85.303 78.9586Z" fill="#686868"/>
<path d="M85.0694 87.5288C82.0449 87.2207 75.6249 88.5537 75.5872 88.4405C75.5495 88.4405 79.2908 93.5652 82.592 94.2443C85.8303 94.98 89.2383 93.5966 89.8105 91.6097C90.3953 89.6164 88.1065 88.0067 85.0694 87.5288Z" fill="#686868"/>
<path d="M80.6674 80.7757C80.5291 83.819 75.7188 88.5161 75.5868 88.4407C75.6119 88.4281 74.5996 82.1087 75.0397 79.3106C75.5742 76.4747 76.7186 74.6512 78.19 74.9845C79.6362 75.324 81.0007 77.7889 80.6674 80.7757Z" fill="#686868"/>
<path d="M64.8782 92.4207C62.9855 92.1755 58.9487 92.9049 58.9298 92.8295C58.9109 92.8295 61.162 96.0992 63.2182 96.5834C65.2303 97.099 67.3934 96.2878 67.7832 95.0554C68.1857 93.8167 66.7772 92.7729 64.8845 92.4207H64.8782Z" fill="#686868"/>
<path d="M62.2383 88.1138C62.1 90.019 59.0063 92.8738 58.9309 92.8235C58.9497 92.8172 58.4216 88.8432 58.7422 87.0951C59.1258 85.3282 59.8741 84.209 60.7858 84.4416C61.685 84.6806 62.4961 86.2463 62.2383 88.1075V88.1138Z" fill="#686868"/>
<path d="M58.3776 17.0471L63.6846 17.8142L59.8426 21.5618L60.7544 26.8563L56.0007 24.36L51.2533 26.8563L52.1588 21.5681L48.3105 17.8205L53.6239 17.0471L56.0007 12.2368L58.3776 17.0471Z" fill="#686868"/>
<path d="M41.2679 23.7253L44.4748 24.1906L42.1545 26.4543L42.7016 29.6485L39.8343 28.1394L36.9607 29.6485L37.5078 26.4543L35.1875 24.1906L38.3944 23.7253L39.828 20.814L41.2679 23.7253Z" fill="#686868"/>
<path d="M70.7395 23.7253L67.5264 24.1906L69.8529 26.4543L69.2996 29.6485L72.1732 28.1394L75.0405 29.6485L74.4934 26.4543L76.8137 24.1906L73.6068 23.7253L72.1732 20.814L70.7395 23.7253Z" fill="#686868"/>
</g>
<defs>
<clipPath id="clip0_512_970">
<rect width="111.272" height="107.7" fill="white" transform="translate(0.364258 0.981445)"/>
</clipPath>
</defs>
</svg>
