<svg width="120" height="108" viewBox="0 0 120 108" fill="none" xmlns="http://www.w3.org/2000/svg">
<g clip-path="url(#clip0_512_1052)">
<path d="M53.4536 43.9324C53.4536 45.1273 52.5447 45.8201 50.7778 45.8201H47.4473V38.835H50.5807C52.1888 38.835 53.085 39.515 53.085 40.64C53.085 41.3964 52.6973 41.9303 52.1443 42.1973C52.9324 42.4134 53.4536 43.0045 53.4536 43.9324ZM48.4451 39.6422V41.8795H50.4918C51.5087 41.8795 52.0871 41.4981 52.0871 40.7608C52.0871 40.0235 51.5087 39.6422 50.4918 39.6422H48.4451ZM52.4494 43.8562C52.4494 43.049 51.8519 42.6867 50.7396 42.6867H48.4451V45.0129H50.7396C51.8456 45.0129 52.4494 44.6634 52.4494 43.8562Z" fill="#686868"/>
<path d="M60.3562 44.9494V45.8201H55.2842V38.835H60.2164V39.7057H56.2821V41.854H59.7842V42.6994H56.2821V44.9557H60.3562V44.9494Z" fill="#686868"/>
<path d="M61.6211 45.0194L61.9897 44.244C62.5109 44.7143 63.3944 45.0512 64.2969 45.0512C65.5046 45.0512 66.0258 44.5808 66.0258 43.9707C66.0258 42.2609 61.7927 43.3414 61.7927 40.7482C61.7927 39.6677 62.6317 38.7524 64.4686 38.7524C65.2885 38.7524 66.1338 38.9685 66.7122 39.369L66.3817 40.1698C65.7715 39.7821 65.0851 39.5978 64.4686 39.5978C63.28 39.5978 62.7715 40.0999 62.7715 40.7037C62.7715 42.4071 67.0046 41.3393 67.0046 43.9071C67.0046 44.9749 66.1465 45.8902 64.2969 45.8902C63.2291 45.8902 62.1804 45.5279 61.6211 45.013V45.0194Z" fill="#686868"/>
<path d="M70.0358 39.6994H67.6396V38.8286H73.4172V39.6994H71.021V45.8138H70.0358V39.6994Z" fill="#686868"/>
<path d="M51.9214 56.4917H48.3176L47.682 58.1442H44.4277L48.5782 48.6548H51.7243L55.8748 58.1442H52.5633L51.9277 56.4917H51.9214ZM51.0379 54.1845L50.1163 51.801L49.1947 54.1845H51.0379Z" fill="#686868"/>
<path d="M56.2754 53.3961C56.2754 50.4787 58.5127 48.4321 61.5635 48.4321C63.4195 48.4321 64.8877 49.1122 65.822 50.3326L63.8008 52.1376C63.2415 51.4321 62.5805 51.0254 61.7288 51.0254C60.4004 51.0254 59.5042 51.947 59.5042 53.3961C59.5042 54.8453 60.4004 55.7669 61.7288 55.7669C62.5805 55.7669 63.2478 55.3601 63.8008 54.6546L65.822 56.4597C64.8877 57.68 63.4195 58.3601 61.5635 58.3601C58.5127 58.3601 56.2754 56.3135 56.2754 53.3961Z" fill="#686868"/>
<path d="M69.1398 51.1336H66.3623V48.6548H75.1208V51.1336H72.3432V58.1442H69.1462V51.1336H69.1398Z" fill="#686868"/>
<path d="M44.5418 65.9619H40.83L40.0609 67.7098H39.0312L42.1965 60.7246H43.1817L46.3533 67.7098H45.3046L44.5355 65.9619H44.5418ZM44.1923 65.1611L42.6859 61.7352L41.1796 65.1611H44.1923Z" fill="#686868"/>
<path d="M57.1842 60.7183L54.8516 67.7034H53.8028L51.8961 62.1229L49.9893 67.7034H48.9215L46.5889 60.7183H47.6185L49.5062 66.3941L51.4702 60.7183H52.3855L54.3113 66.4259L56.2372 60.7183H57.1842Z" fill="#686868"/>
<path d="M62.9237 65.9619H59.2118L58.4427 67.7098H57.4131L60.5783 60.7246H61.5635L64.7351 67.7098H63.6864L62.9173 65.9619H62.9237ZM62.5741 65.1611L61.0677 61.7352L59.5614 65.1611H62.5741Z" fill="#686868"/>
<path d="M70.7419 67.7034L69.2356 65.5551C69.0957 65.5679 68.9432 65.5742 68.797 65.5742H67.0682V67.6971H66.0703V60.7119H68.797C70.6148 60.7119 71.708 61.6272 71.708 63.1462C71.708 64.2268 71.1487 65.0022 70.1699 65.3518L71.8288 67.6971H70.7419V67.7034ZM70.7101 63.1526C70.7101 62.1547 70.0428 61.589 68.7652 61.589H67.0682V64.7352H68.7652C70.0428 64.7352 70.7101 64.1568 70.7101 63.159V63.1526Z" fill="#686868"/>
<path d="M73.6143 60.7183H76.5571C78.8007 60.7183 80.3325 62.1356 80.3325 64.214C80.3325 66.2924 78.8071 67.7098 76.5571 67.7098H73.6143V60.7246V60.7183ZM76.4999 66.8327C78.2287 66.8327 79.3346 65.7776 79.3346 64.2077C79.3346 62.6378 78.2287 61.5827 76.4999 61.5827H74.6121V66.8327H76.4999Z" fill="#686868"/>
<path d="M28.7101 17.46C31.0554 16.1061 33.8457 15.4324 35.9622 15.9536C37.6274 16.3604 38.7397 17.3837 40.0173 18.21C41.3075 19.0426 42.9283 19.729 44.7969 19.5066C43.2016 20.0913 41.6889 20.7587 40.2524 21.5087C38.7906 22.2714 37.3478 23.1422 35.8351 23.3519C34.5385 23.5299 33.3563 23.193 32.3075 22.729C31.2652 22.2714 30.3054 21.6803 29.1423 21.4006C28.3287 21.21 27.4262 21.1909 26.4855 21.3498C25.6465 21.4833 24.1656 22.4112 23.4728 22.4557C22.5003 22.5066 24.388 20.8222 24.9728 20.2947C26.0978 19.2269 27.3372 18.2417 28.6974 17.46H28.7101Z" fill="#686868"/>
<path d="M19.7924 26.1102C21.6102 24.2352 23.9809 22.9195 26.0657 22.9131C27.6992 22.9068 28.9958 23.625 30.3941 24.1208C31.7987 24.6165 33.464 24.8898 35.0593 24.2352C33.8136 25.1695 32.6504 26.1801 31.5636 27.2415C30.4576 28.322 29.3771 29.5106 28.0297 30.0763C26.8856 30.5593 25.6843 30.5212 24.5847 30.3242C23.4852 30.1335 22.4364 29.7966 21.267 29.8093C20.4534 29.822 19.5953 30.0254 18.7564 30.4068C18 30.7373 16.8432 31.9958 16.2013 32.2119C15.2924 32.4979 16.6462 30.4068 17.0593 29.7585C17.8411 28.4492 18.7373 27.197 19.7987 26.1165L19.7924 26.1102Z" fill="#686868"/>
<path d="M13.6083 36.6547C14.8859 34.392 16.799 32.536 18.763 32.0276C20.3075 31.6208 21.7185 32.0021 23.1613 32.1356C24.6105 32.2691 26.2439 32.1356 27.5533 31.1123C26.6507 32.3199 25.8308 33.5721 25.0935 34.8623C24.3372 36.178 23.6126 37.589 22.4812 38.4661C21.5088 39.2161 20.352 39.4704 19.2524 39.553C18.1528 39.6356 17.0596 39.5657 15.9473 39.8708C15.1719 40.0805 14.3965 40.4873 13.6783 41.0657C13.03 41.5742 12.2164 43.0742 11.6444 43.4428C10.8372 43.9449 11.6444 41.5869 11.8859 40.8496C12.3181 39.3877 12.8774 37.9577 13.6274 36.6483L13.6083 36.6547Z" fill="#686868"/>
<path d="M10.1633 48.3943C10.8815 45.8837 12.2925 43.6146 14.0658 42.6294C15.4578 41.854 16.9069 41.8794 18.3243 41.657C19.748 41.4345 21.2861 40.9006 22.2777 39.5913C21.7183 40.9769 21.2417 42.3943 20.8349 43.8307C20.4217 45.2926 20.0595 46.8371 19.1633 47.9684C18.4006 48.9345 17.3328 49.4684 16.284 49.8244C15.2417 50.1803 14.1611 50.3837 13.1506 50.9494C12.445 51.3498 11.784 51.9345 11.2184 52.6718C10.7035 53.3201 10.2459 54.9918 9.77555 55.4875C9.10182 56.174 9.36242 53.6824 9.42598 52.9134C9.52132 51.3879 9.73742 49.8562 10.1569 48.407L10.1633 48.3943Z" fill="#686868"/>
<path d="M9.45123 60.6547C9.59741 58.0361 10.4618 55.481 11.9618 54.089C13.1377 52.9958 14.5487 52.6589 15.8771 52.0869C17.2118 51.5149 18.5783 50.6187 19.2394 49.0996C19.0233 50.5869 18.8771 52.0742 18.8072 53.5678C18.7372 55.0869 18.7309 56.6822 18.108 58.0043C17.5805 59.1356 16.6652 59.9174 15.7245 60.5212C14.7839 61.1251 13.786 61.589 12.9279 62.3899C12.3305 62.9492 11.8156 63.6801 11.4279 64.5445C11.072 65.3073 10.9957 67.0361 10.6461 67.6399C10.144 68.4725 9.84529 65.9873 9.73724 65.2183C9.48936 63.7119 9.36224 62.1674 9.45123 60.6547Z" fill="#686868"/>
<path d="M11.4727 72.7566C11.0278 70.1761 11.3011 67.4748 12.4515 65.7523C13.3541 64.3985 14.6507 63.7184 15.8138 62.8349C16.9833 61.9515 18.121 60.7375 18.4198 59.104C18.5342 60.604 18.7248 62.0913 18.9854 63.5595C19.2524 65.0532 19.5956 66.604 19.2905 68.0468C19.0299 69.2735 18.3117 70.265 17.5299 71.0786C16.7545 71.8985 15.8837 72.5977 15.2291 73.5892C14.7715 74.282 14.4409 75.121 14.2566 76.0489C14.085 76.8752 14.4092 78.5786 14.2058 79.246C13.907 80.1803 13.0426 77.8413 12.7693 77.1231C12.1846 75.7184 11.7142 74.2502 11.46 72.7566H11.4727Z" fill="#686868"/>
<path d="M16.2327 84.0064C15.1776 81.6165 14.8217 78.9216 15.5463 76.964C16.1119 75.4258 17.2242 74.4407 18.1522 73.2966C19.0865 72.1462 19.9191 70.6843 19.8492 69.019C20.2941 70.4428 20.8153 71.8474 21.4064 73.2076C22.0039 74.5932 22.703 76.0169 22.7412 77.4915C22.773 78.75 22.309 79.8877 21.7497 80.8729C21.1903 81.858 20.5102 82.7542 20.1098 83.8792C19.8365 84.6674 19.7158 85.5572 19.7666 86.5106C19.7984 87.3559 20.542 88.9258 20.5166 89.625C20.4594 90.6038 19.023 88.5509 18.5717 87.9216C17.6564 86.7076 16.8365 85.3983 16.2327 84.0127V84.0064Z" fill="#686868"/>
<path d="M23.7262 93.7247C22.0482 91.6717 21.0186 89.1484 21.241 87.0764C21.4126 85.4429 22.258 84.2162 22.8872 82.8751C23.5228 81.5276 23.9804 79.9069 23.5164 78.3052C24.2919 79.5827 25.1372 80.8094 26.0461 81.9789C26.9741 83.1738 28.0164 84.3815 28.4359 85.7988C28.7919 87.0065 28.6393 88.2204 28.3406 89.32C28.0482 90.4132 27.616 91.4493 27.527 92.6378C27.4635 93.4641 27.5906 94.3603 27.902 95.2628C28.169 96.07 29.3512 97.3984 29.5228 98.0785C29.7453 99.0383 27.7177 97.4175 27.1075 96.9217C25.8554 95.9747 24.6923 94.9196 23.7262 93.7247Z" fill="#686868"/>
<path d="M33.96 101.231C31.6465 99.6804 29.8986 97.5003 29.5363 95.441C29.2503 93.8202 29.7524 92.4219 30.013 90.9728C30.2736 89.5109 30.2863 87.8266 29.4092 86.3965C30.5088 87.4389 31.6719 88.4113 32.9049 89.3202C34.1571 90.2418 35.5427 91.1444 36.3816 92.4029C37.0935 93.477 37.2969 94.691 37.3287 95.8223C37.3604 96.9537 37.227 98.0596 37.5003 99.2228C37.691 100.036 38.0914 100.869 38.6888 101.657C39.21 102.369 40.8499 103.348 41.2439 103.952C41.7778 104.816 39.1655 103.774 38.3838 103.456C36.8011 102.865 35.2948 102.14 33.9537 101.238L33.96 101.231Z" fill="#686868"/>
<path d="M35.244 13.4047C37.6084 11.9047 40.0173 10.1949 41.3902 8.31357C42.4643 6.83899 42.7313 5.3517 43.4495 3.87712C44.1741 2.4089 45.6486 0.769069 48.4707 0C45.8202 0.311441 43.2652 0.769069 40.8118 1.36653C38.3202 1.96399 35.7715 2.81568 34.119 4.20128C32.708 5.38348 32.1741 6.73094 31.9707 7.93221C31.7673 9.13984 31.8372 10.2776 31.5512 11.5106C31.3541 12.3687 30.9855 13.2648 30.4961 14.1547C30.0512 14.9365 28.7355 16.2585 28.5893 16.9577C28.3669 17.9047 30.3817 16.2903 31.0936 15.8899C32.4664 15.0699 33.8647 14.2627 35.244 13.3983V13.4047Z" fill="#686868"/>
<path d="M39.9278 11.4982C42.2095 10.9135 44.7138 10.9071 46.4108 11.6825C47.7456 12.2927 48.4701 13.2779 49.3981 14.1359C50.3324 15.0003 51.6163 15.8012 53.3515 15.9156C51.7879 16.1317 50.2816 16.4114 48.8324 16.7609C47.3579 17.1105 45.8642 17.5427 44.4913 17.4347C43.3218 17.3393 42.3939 16.8499 41.6248 16.2906C40.8557 15.7313 40.2074 15.083 39.3049 14.6381C38.6757 14.3266 37.9256 14.1296 37.1121 14.0533C36.3875 13.9834 34.932 14.3775 34.36 14.2631C33.5591 14.0914 35.5231 13.208 36.1396 12.9219C37.3345 12.3372 38.5994 11.8287 39.9278 11.4982Z" fill="#686868"/>
<path d="M48.4004 9.97249C50.2055 9.46402 52.0424 8.77757 53.1992 7.83054C54.1017 7.08689 54.4767 6.2352 55.1187 5.43435C55.7606 4.63986 56.8665 3.81994 58.6526 3.60384C57.0127 3.55935 55.411 3.57841 53.8411 3.64197C52.2458 3.70553 50.5805 3.85808 49.3475 4.43011C48.2988 4.91316 47.7331 5.60596 47.3899 6.27333C47.0466 6.94071 46.8687 7.61444 46.4492 8.28181C46.1568 8.74579 45.7437 9.20342 45.2543 9.62927C44.8157 10.0043 43.6971 10.5191 43.4428 10.8877C43.0869 11.3899 44.7204 10.8433 45.2543 10.7352C46.2966 10.5064 47.3581 10.2712 48.4068 9.97885L48.4004 9.97249Z" fill="#686868"/>
<path d="M24.6803 20.6254C26.4091 18.6105 28.0616 16.3987 28.7163 14.2694C29.2311 12.5978 29.0214 11.1042 29.212 9.52152C29.4091 7.9389 30.2099 6.0194 32.4027 4.62109C30.2163 5.53635 28.1315 6.57872 26.1485 7.72915C24.1336 8.89229 22.1061 10.3097 21.0129 12.0385C20.0849 13.5131 19.9832 14.9368 20.1358 16.1444C20.2947 17.352 20.6824 18.4389 20.765 19.691C20.8222 20.5682 20.7396 21.5152 20.5362 22.494C20.3455 23.3584 19.4875 24.9474 19.5383 25.6593C19.5891 26.6254 21.0256 24.5788 21.5722 24.0258C22.6082 22.9071 23.6697 21.7885 24.6803 20.6254Z" fill="#686868"/>
<path d="M16.8559 30.1524C17.9618 27.788 18.9025 25.2457 18.9216 23.0338C18.9406 21.2986 18.3241 19.913 18.0572 18.3304C17.7966 16.7605 17.9872 14.7139 19.5762 12.8452C17.8601 14.2499 16.2457 15.7499 14.733 17.3389C13.1949 18.9469 11.6885 20.8092 11.1292 22.7414C10.6461 24.3876 10.9258 25.7923 11.3898 26.9173C11.8601 28.0486 12.5021 29.002 12.9089 30.1969C13.1949 31.0296 13.3538 31.9702 13.411 32.9618C13.4491 33.8452 13.0296 35.5931 13.2521 36.2732C13.5445 37.1948 14.4089 34.8622 14.7839 34.1948C15.4894 32.8537 16.2076 31.519 16.8559 30.1461V30.1524Z" fill="#686868"/>
<path d="M11.7779 41.2883C12.2737 38.7205 12.547 36.032 12.0131 33.8836C11.5936 32.1993 10.6593 31.0108 9.99826 29.5489C9.3436 28.0934 9.00674 26.0658 9.99826 23.8794C8.7525 25.6527 7.60843 27.5023 6.57242 29.4091C5.51733 31.3413 4.53852 33.515 4.4686 35.5235C4.4114 37.2396 5.01521 38.5298 5.72708 39.5087C6.4453 40.4875 7.29699 41.2565 7.97072 42.3116C8.44106 43.0489 8.81606 43.9197 9.10843 44.8731C9.35631 45.7184 9.34996 47.5235 9.72496 48.1273C10.2207 48.9536 10.5195 46.4748 10.7228 45.7311C11.0915 44.2565 11.4728 42.782 11.7652 41.2947L11.7779 41.2883Z" fill="#686868"/>
<path d="M9.43891 53.3457C9.34357 50.727 8.99399 48.0512 7.97704 46.0999C7.1762 44.5681 5.99399 43.6465 5.01518 42.388C4.04272 41.1423 3.23552 39.2545 3.66772 36.8901C2.89865 38.9177 2.23764 40.9897 1.67831 43.0935C1.10628 45.2291 0.65501 47.5808 1.04908 49.5512C1.37959 51.2291 2.2567 52.3351 3.17196 53.1105C4.09357 53.8859 5.09145 54.4198 5.98128 55.2779C6.60416 55.8753 7.16348 56.6317 7.65925 57.4834C8.08509 58.2397 8.48552 60.0003 8.98128 60.4897C9.6423 61.1698 9.38806 58.6847 9.4262 57.9092C9.45798 56.3838 9.49611 54.8584 9.44526 53.3393L9.43891 53.3457Z" fill="#686868"/>
<path d="M9.83896 65.6508C9.17159 63.1275 8.23726 60.6106 6.81989 58.9644C5.70125 57.6741 4.34743 57.0703 3.11438 56.0915C1.88769 55.119 0.686416 53.4856 0.572009 51.083C0.285992 53.2377 0.10167 55.4178 0.031755 57.6042C-0.0445162 59.8161 0.0317551 62.2186 0.845314 64.0364C1.53811 65.5873 2.63133 66.4453 3.69913 66.9729C4.76692 67.5004 5.85379 67.7673 6.90887 68.3839C7.64616 68.8161 8.35803 69.4072 9.0254 70.1127C9.61014 70.7483 10.3856 72.3563 10.9767 72.7123C11.7712 73.208 10.9703 70.8563 10.8305 70.1C10.5254 68.6127 10.2267 67.119 9.83896 65.6508Z" fill="#686868"/>
<path d="M12.9789 77.5106C11.7522 75.2288 10.2839 73.0106 8.53607 71.7648C7.16319 70.786 5.71403 70.5318 4.29666 69.8898C2.892 69.2479 1.36022 67.9576 0.711914 65.6504C0.908948 67.8178 1.21403 69.9851 1.62717 72.1271C2.0403 74.3008 2.65683 76.6144 3.8581 78.1779C4.88141 79.5127 6.14624 80.0784 7.29666 80.3263C8.45344 80.5741 9.57844 80.5678 10.7479 80.9046C11.5678 81.1398 12.3941 81.5402 13.214 82.0614C13.9323 82.5318 15.07 83.8983 15.731 84.1017C16.6272 84.3814 15.2797 82.303 14.9683 81.5975C14.32 80.2246 13.6844 78.8517 12.9725 77.5233L12.9789 77.5106Z" fill="#686868"/>
<path d="M18.8644 88.2459C17.0975 86.3328 15.1335 84.5468 13.1314 83.7713C11.5615 83.1612 10.0869 83.2756 8.56147 83.0023C7.04241 82.729 5.25639 81.8518 4.09961 79.7671C4.77969 81.8264 5.57419 83.854 6.48308 85.8307C7.39834 87.8391 8.54876 89.9302 10.106 91.1506C11.4344 92.193 12.8072 92.4218 14.0022 92.3773C15.1971 92.3264 16.2966 92.0404 17.5297 92.0785C18.3877 92.104 19.3094 92.2819 20.2437 92.587C21.0699 92.8667 22.5509 93.9027 23.2564 93.9345C24.2161 93.9853 22.3348 92.3074 21.8517 91.7035C20.8602 90.5404 19.8877 89.3646 18.8644 88.2523V88.2459Z" fill="#686868"/>
<path d="M27.4886 97.1695C25.1941 95.7648 22.7789 94.5254 20.6051 94.2712C18.9017 94.0741 17.4844 94.5508 15.9145 94.6589C14.3509 94.7669 12.3806 94.3665 10.7344 92.6313C11.9102 94.4619 13.1941 96.2225 14.5988 97.9131C16.0098 99.6292 17.7068 101.364 19.5818 102.159C21.1835 102.833 22.6136 102.712 23.7895 102.369C24.9653 102.019 25.9823 101.472 27.228 101.199C28.0988 101.008 29.0712 100.951 30.1009 101.008C31.0098 101.066 32.8085 101.701 33.5395 101.549C34.5246 101.358 32.1221 100.214 31.4611 99.75C30.12 98.8729 28.8106 97.9894 27.4823 97.1695H27.4886Z" fill="#686868"/>
<path d="M57.9343 107.663H57.9279C43.9258 107.511 31.8813 102.807 23.0847 94.055C15.286 86.3007 10.2902 75.5338 9.01268 63.7371C7.71607 51.7753 10.2775 39.8197 16.2267 30.0697C22.7923 19.3028 32.911 12.0824 45.483 9.17775C45.8199 9.10147 46.1695 9.31122 46.2457 9.65444C46.322 9.99766 46.1123 10.3409 45.769 10.4172C33.5402 13.2392 23.7012 20.2625 17.3135 30.7307C11.5106 40.2392 9.01268 51.9151 10.2775 63.5973C11.5233 75.1079 16.3919 85.6016 23.9873 93.1524C32.5423 101.663 44.2881 106.239 57.947 106.392C58.2966 106.392 58.5826 106.684 58.5762 107.034C58.5762 107.383 58.2902 107.663 57.9406 107.663H57.9343Z" fill="#686868"/>
<path d="M91.29 17.46C88.9447 16.1061 86.1544 15.4324 84.0379 15.9536C82.3726 16.3604 81.2603 17.3837 79.9828 18.21C78.6925 19.0426 77.0718 19.729 75.2031 19.5066C76.7985 20.0913 78.3112 20.7587 79.7476 21.5087C81.2095 22.2714 82.6523 23.1422 84.165 23.3519C85.4616 23.5299 86.6438 23.193 87.6925 22.729C88.7349 22.2714 89.6946 21.6803 90.8578 21.4006C91.6713 21.21 92.5739 21.1909 93.5146 21.3498C94.3535 21.4833 95.8345 22.4112 96.5273 22.4557C97.4997 22.5066 95.612 20.8222 95.0273 20.2947C93.9023 19.2269 92.6629 18.2417 91.3027 17.46H91.29Z" fill="#686868"/>
<path d="M100.207 26.1102C98.3896 24.2352 96.0188 22.9195 93.9341 22.9131C92.3006 22.9068 91.004 23.625 89.6057 24.1208C88.201 24.6165 86.5358 24.8898 84.9404 24.2352C86.1862 25.1695 87.3493 26.1801 88.4362 27.2415C89.5421 28.322 90.6226 29.5106 91.9701 30.0763C93.1142 30.5593 94.3154 30.5212 95.415 30.3242C96.5146 30.1335 97.5633 29.7966 98.7328 29.8093C99.5464 29.822 100.404 30.0254 101.243 30.4068C102 30.7373 103.157 31.9958 103.798 32.2119C104.707 32.4979 103.354 30.4068 102.94 29.7585C102.159 28.4492 101.262 27.197 100.201 26.1165L100.207 26.1102Z" fill="#686868"/>
<path d="M106.392 36.6547C105.115 34.392 103.202 32.536 101.238 32.0276C99.693 31.6208 98.282 32.0021 96.8392 32.1356C95.3901 32.2691 93.7566 32.1356 92.4473 31.1123C93.3498 32.3199 94.1697 33.5721 94.907 34.8623C95.6634 36.178 96.3879 37.589 97.5193 38.4661C98.4918 39.2161 99.6485 39.4704 100.748 39.553C101.848 39.6356 102.941 39.5657 104.053 39.8708C104.829 40.0805 105.604 40.4873 106.322 41.0657C106.971 41.5742 107.784 43.0742 108.356 43.4428C109.163 43.9449 108.356 41.5869 108.115 40.8496C107.682 39.3877 107.123 37.9577 106.373 36.6483L106.392 36.6547Z" fill="#686868"/>
<path d="M109.843 48.3943C109.125 45.8837 107.714 43.6146 105.94 42.6294C104.548 41.854 103.099 41.8794 101.682 41.657C100.258 41.4345 98.72 40.9006 97.7285 39.5913C98.2878 40.9769 98.7645 42.3943 99.1713 43.8307C99.5845 45.2926 99.9467 46.8371 100.843 47.9684C101.606 48.9345 102.673 49.4684 103.722 49.8244C104.765 50.1803 105.845 50.3837 106.856 50.9494C107.561 51.3498 108.222 51.9345 108.788 52.6718C109.303 53.3201 109.76 54.9918 110.231 55.4875C110.904 56.174 110.644 53.6824 110.58 52.9134C110.485 51.3879 110.269 49.8562 109.849 48.407L109.843 48.3943Z" fill="#686868"/>
<path d="M110.556 60.6547C110.41 58.0361 109.545 55.481 108.045 54.089C106.869 52.9958 105.458 52.6589 104.13 52.0869C102.795 51.5149 101.429 50.6187 100.768 49.0996C100.984 50.5869 101.13 52.0742 101.2 53.5678C101.27 55.0869 101.276 56.6822 101.899 58.0043C102.426 59.1356 103.342 59.9174 104.282 60.5212C105.223 61.1251 106.221 61.589 107.079 62.3899C107.676 62.9492 108.191 63.6801 108.579 64.5445C108.935 65.3073 109.011 67.0361 109.361 67.6399C109.863 68.4725 110.162 65.9873 110.27 65.2183C110.518 63.7119 110.645 62.1674 110.556 60.6547Z" fill="#686868"/>
<path d="M108.527 72.7566C108.972 70.1761 108.699 67.4748 107.549 65.7523C106.646 64.3985 105.349 63.7184 104.186 62.8349C103.017 61.9515 101.879 60.7375 101.58 59.104C101.466 60.604 101.275 62.0913 101.015 63.5595C100.748 65.0532 100.404 66.604 100.71 68.0468C100.97 69.2735 101.688 70.265 102.47 71.0786C103.246 71.8985 104.116 72.5977 104.771 73.5892C105.229 74.282 105.559 75.121 105.743 76.0489C105.915 76.8752 105.591 78.5786 105.794 79.246C106.093 80.1803 106.957 77.8413 107.231 77.1231C107.815 75.7184 108.286 74.2502 108.54 72.7566H108.527Z" fill="#686868"/>
<path d="M103.767 84.0064C104.822 81.6165 105.178 78.9216 104.453 76.964C103.888 75.4258 102.775 74.4407 101.847 73.2966C100.913 72.1462 100.08 70.6843 100.15 69.019C99.7054 70.4428 99.1842 71.8474 98.5931 73.2076C97.9957 74.5932 97.2965 76.0169 97.2584 77.4915C97.2266 78.75 97.6906 79.8877 98.2499 80.8729C98.8092 81.858 99.4893 82.7542 99.8897 83.8792C100.163 84.6674 100.284 85.5572 100.233 86.5106C100.201 87.3559 99.4575 88.9258 99.483 89.625C99.5402 90.6038 100.977 88.5509 101.428 87.9216C102.343 86.7076 103.163 85.3983 103.767 84.0127V84.0064Z" fill="#686868"/>
<path d="M96.2735 93.7247C97.9515 91.6717 98.9812 89.1484 98.7587 87.0764C98.5871 85.4429 97.7418 84.2162 97.1125 82.8751C96.4769 81.5276 96.0193 79.9069 96.4833 78.3052C95.7079 79.5827 94.8625 80.8094 93.9536 81.9789C93.0257 83.1738 91.9833 84.3815 91.5638 85.7988C91.2079 87.0065 91.3604 88.2204 91.6591 89.32C91.9515 90.4132 92.3837 91.4493 92.4727 92.6378C92.5363 93.4641 92.4091 94.3603 92.0977 95.2628C91.8307 96.07 90.6485 97.3984 90.4769 98.0785C90.2545 99.0383 92.282 97.4175 92.8922 96.9217C94.1443 95.9747 95.3074 94.9196 96.2735 93.7247Z" fill="#686868"/>
<path d="M86.0467 101.231C88.3602 99.6804 90.1081 97.5003 90.4704 95.441C90.7564 93.8202 90.2543 92.4219 89.9937 90.9728C89.7331 89.5109 89.7204 87.8266 90.5975 86.3965C89.4979 87.4389 88.3348 88.4113 87.1017 89.3202C85.8496 90.2418 84.464 91.1444 83.625 92.4029C82.9132 93.477 82.7098 94.691 82.678 95.8223C82.6462 96.9537 82.7797 98.0596 82.5064 99.2228C82.3157 100.036 81.9153 100.869 81.3178 101.657C80.7967 102.369 79.1568 103.348 78.7628 103.952C78.2289 104.816 80.8411 103.774 81.6229 103.456C83.2055 102.865 84.7119 102.14 86.053 101.238L86.0467 101.231Z" fill="#686868"/>
<path d="M84.756 13.4047C82.3916 11.9047 79.9827 10.1949 78.6098 8.31357C77.5357 6.83899 77.2687 5.3517 76.5505 3.87712C75.8259 2.4089 74.3513 0.769069 71.5293 0C74.1797 0.311441 76.7348 0.769069 79.1882 1.36653C81.6797 1.96399 84.2284 2.81568 85.881 4.20128C87.292 5.38348 87.8259 6.73094 88.0293 7.93221C88.2327 9.13984 88.1628 10.2776 88.4488 11.5106C88.6458 12.3687 89.0145 13.2648 89.5039 14.1547C89.9488 14.9365 91.2645 16.2585 91.4107 16.9577C91.6331 17.9047 89.6183 16.2903 88.9064 15.8899C87.5335 15.0699 86.1352 14.2627 84.756 13.3983V13.4047Z" fill="#686868"/>
<path d="M80.0722 11.4982C77.7904 10.9135 75.2861 10.9071 73.5891 11.6825C72.2544 12.2927 71.5298 13.2779 70.6018 14.1359C69.6675 15.0003 68.3836 15.8012 66.6484 15.9156C68.212 16.1317 69.7184 16.4114 71.1675 16.7609C72.6421 17.1105 74.1357 17.5427 75.5086 17.4347C76.6781 17.3393 77.6061 16.8499 78.3751 16.2906C79.1442 15.7313 79.7925 15.083 80.695 14.6381C81.3243 14.3266 82.0743 14.1296 82.8878 14.0533C83.6124 13.9834 85.0679 14.3775 85.64 14.2631C86.4408 14.0914 84.4768 13.208 83.8603 12.9219C82.6654 12.3372 81.4006 11.8287 80.0722 11.4982Z" fill="#686868"/>
<path d="M71.6056 9.97249C69.8006 9.46402 67.9637 8.77757 66.8069 7.83054C65.9044 7.08689 65.5294 6.2352 64.8874 5.43435C64.2455 4.63986 63.1395 3.81994 61.3535 3.60384C62.9933 3.55935 64.595 3.57841 66.165 3.64197C67.7603 3.70553 69.4255 3.85808 70.6586 4.43011C71.7073 4.91316 72.273 5.60596 72.6162 6.27333C72.9594 6.94071 73.1374 7.61444 73.5569 8.28181C73.8493 8.74579 74.2624 9.20342 74.7518 9.62927C75.1904 10.0043 76.309 10.5191 76.5633 10.8877C76.9192 11.3899 75.2857 10.8433 74.7518 10.7352C73.7094 10.5064 72.648 10.2712 71.5993 9.97885L71.6056 9.97249Z" fill="#686868"/>
<path d="M95.3201 20.6254C93.5913 18.6105 91.9387 16.3987 91.2841 14.2694C90.7693 12.5978 90.979 11.1042 90.7883 9.52152C90.5913 7.9389 89.7905 6.0194 87.5977 4.62109C89.7841 5.53635 91.8688 6.57872 93.8519 7.72915C95.8667 8.89229 97.8943 10.3097 98.9875 12.0385C99.9155 13.5131 100.017 14.9368 99.8646 16.1444C99.7057 17.352 99.318 18.4389 99.2354 19.691C99.1782 20.5682 99.2608 21.5152 99.4642 22.494C99.6549 23.3584 100.513 24.9474 100.462 25.6593C100.411 26.6254 98.9748 24.5788 98.4282 24.0258C97.3921 22.9071 96.3307 21.7885 95.3201 20.6254Z" fill="#686868"/>
<path d="M103.145 30.1529C102.039 27.7885 101.098 25.2461 101.073 23.0343C101.054 21.2991 101.67 19.9135 101.937 18.3309C102.198 16.761 102.007 14.7143 100.418 12.8457C102.134 14.2504 103.748 15.7504 105.261 17.3394C106.799 18.9474 108.306 20.8097 108.865 22.7419C109.348 24.3881 109.068 25.7928 108.604 26.9178C108.134 28.0491 107.492 29.0025 107.085 30.1974C106.799 31.0301 106.64 31.9707 106.583 32.9623C106.545 33.8457 106.965 35.5936 106.742 36.2737C106.45 37.1953 105.585 34.8627 105.21 34.1953C104.505 32.8542 103.787 31.5195 103.138 30.1466L103.145 30.1529Z" fill="#686868"/>
<path d="M108.223 41.2883C107.727 38.7205 107.453 36.032 107.987 33.8836C108.407 32.1993 109.341 31.0108 110.002 29.5489C110.657 28.0934 110.994 26.0658 110.002 23.8794C111.248 25.6527 112.392 27.5023 113.428 29.4091C114.483 31.3413 115.462 33.515 115.532 35.5235C115.589 37.2396 114.985 38.5298 114.273 39.5087C113.555 40.4875 112.703 41.2565 112.03 42.3116C111.559 43.0489 111.184 43.9197 110.892 44.8731C110.644 45.7184 110.651 47.5235 110.276 48.1273C109.78 48.9536 109.481 46.4748 109.278 45.7311C108.909 44.2565 108.528 42.782 108.235 41.2947L108.223 41.2883Z" fill="#686868"/>
<path d="M110.568 53.3457C110.664 50.727 111.013 48.0512 112.03 46.0999C112.831 44.5681 114.013 43.6465 114.992 42.388C115.964 41.1423 116.772 39.2545 116.339 36.8901C117.108 38.9177 117.77 40.9897 118.329 43.0935C118.901 45.2291 119.352 47.5808 118.958 49.5512C118.628 51.2291 117.75 52.3351 116.835 53.1105C115.914 53.8859 114.916 54.4198 114.026 55.2779C113.403 55.8753 112.844 56.6317 112.348 57.4834C111.922 58.2397 111.522 60.0003 111.026 60.4897C110.365 61.1698 110.619 58.6847 110.581 57.9092C110.549 56.3838 110.511 54.8584 110.562 53.3393L110.568 53.3457Z" fill="#686868"/>
<path d="M110.161 65.6508C110.828 63.1275 111.763 60.6106 113.18 58.9644C114.299 57.6741 115.653 57.0703 116.886 56.0915C118.112 55.119 119.314 53.4856 119.428 51.083C119.714 53.2377 119.898 55.4178 119.968 57.6042C120.045 59.8161 119.968 62.2186 119.155 64.0364C118.462 65.5873 117.369 66.4453 116.301 66.9729C115.233 67.5004 114.146 67.7673 113.091 68.3839C112.354 68.8161 111.642 69.4072 110.975 70.1127C110.39 70.7483 109.614 72.3563 109.023 72.7123C108.229 73.208 109.03 70.8563 109.17 70.1C109.475 68.6127 109.773 67.119 110.161 65.6508Z" fill="#686868"/>
<path d="M107.021 77.5106C108.248 75.2288 109.716 73.0106 111.464 71.7648C112.837 70.786 114.286 70.5318 115.703 69.8898C117.108 69.2479 118.64 67.9576 119.288 65.6504C119.091 67.8178 118.786 69.9851 118.373 72.1271C117.959 74.3008 117.343 76.6144 116.142 78.1779C115.118 79.5127 113.853 80.0784 112.703 80.3263C111.546 80.5741 110.421 80.5678 109.252 80.9046C108.432 81.1398 107.606 81.5402 106.786 82.0614C106.067 82.5318 104.93 83.8983 104.269 84.1017C103.373 84.3814 104.72 82.303 105.031 81.5975C105.68 80.2246 106.315 78.8517 107.027 77.5233L107.021 77.5106Z" fill="#686868"/>
<path d="M101.135 88.2459C102.902 86.3328 104.866 84.5468 106.868 83.7713C108.438 83.1612 109.913 83.2756 111.438 83.0023C112.957 82.729 114.743 81.8518 115.9 79.7671C115.22 81.8264 114.426 83.854 113.517 85.8307C112.602 87.8391 111.451 89.9302 109.894 91.1506C108.565 92.193 107.193 92.4218 105.998 92.3773C104.803 92.3264 103.703 92.0404 102.47 92.0785C101.612 92.104 100.69 92.2819 99.7562 92.587C98.9299 92.8667 97.449 93.9027 96.7435 93.9345C95.7837 93.9853 97.6651 92.3074 98.1481 91.7035C99.1396 90.5404 100.112 89.3646 101.135 88.2523V88.2459Z" fill="#686868"/>
<path d="M92.5105 97.1695C94.805 95.7648 97.2202 94.5254 99.3939 94.2712C101.097 94.0741 102.515 94.5508 104.085 94.6589C105.648 94.7669 107.619 94.3665 109.265 92.6313C108.089 94.4619 106.805 96.2225 105.4 97.9131C103.989 99.6292 102.292 101.364 100.417 102.159C98.8155 102.833 97.3855 102.712 96.2096 102.369C95.0338 102.019 94.0168 101.472 92.7711 101.199C91.9003 101.008 90.9278 100.951 89.8982 101.008C88.9893 101.066 87.1905 101.701 86.4596 101.549C85.4744 101.358 87.877 100.214 88.538 99.75C89.8791 98.8729 91.1821 97.9894 92.5168 97.1695H92.5105Z" fill="#686868"/>
<path d="M62.0653 107.664C61.7157 107.664 61.436 107.384 61.4297 107.034C61.4297 106.685 61.7093 106.399 62.0589 106.392C75.7178 106.246 87.4636 101.664 96.0187 93.1529C103.608 85.6021 108.476 75.1084 109.728 63.5978C110.993 51.9156 108.495 40.2397 102.692 30.7312C96.3047 20.263 86.4657 13.2397 74.2369 10.4176C73.8937 10.3414 73.6839 9.99815 73.7602 9.65493C73.8365 9.31171 74.1797 9.10196 74.5229 9.17823C87.0949 12.0829 97.2072 19.3032 103.779 30.0702C109.728 39.8202 112.29 51.7758 110.993 63.7376C109.716 75.5343 104.714 86.3012 96.9212 94.0555C88.1246 102.801 76.0738 107.511 62.078 107.664H62.0716H62.0653Z" fill="#686868"/>
<path d="M62.9935 78.1402L69.68 79.1063L64.8431 83.8224L65.9872 90.4835L60.0063 87.3436L54.0253 90.4898L55.163 83.8288L50.3262 79.1127L57.0126 78.1402L59.9999 72.083L62.9935 78.1402Z" fill="#686868"/>
<path d="M34.2715 75.2036H47.9304" stroke="#686868" stroke-width="0.635594" stroke-linecap="round" stroke-linejoin="round"/>
<path d="M85.7291 75.2036H70.2715" stroke="#686868" stroke-width="0.635594" stroke-linecap="round" stroke-linejoin="round"/>
</g>
<defs>
<clipPath id="clip0_512_1052">
<rect width="120" height="107.663" fill="white"/>
</clipPath>
</defs>
</svg>
