<svg width="118" height="108" viewBox="0 0 118 108" fill="none" xmlns="http://www.w3.org/2000/svg">
<g clip-path="url(#clip0_512_1110)">
<path d="M51.2465 45.6836C51.2465 47.0859 50.1846 47.8891 48.1153 47.8891H44.2148V39.707H47.8838C49.7626 39.707 50.8177 40.5035 50.8177 41.824C50.8177 42.7089 50.3616 43.3284 49.7217 43.6483C50.6475 43.907 51.2533 44.5945 51.2533 45.6836H51.2465ZM45.3789 40.66V43.2807H47.7749C48.9662 43.2807 49.6469 42.8383 49.6469 41.9738C49.6469 41.1093 48.9662 40.6668 47.7749 40.6668H45.3789V40.66ZM50.0621 45.5883C50.0621 44.6421 49.361 44.2201 48.0608 44.2201H45.372V46.9429H48.0608C49.361 46.9429 50.0621 46.5345 50.0621 45.5883Z" fill="#686868"/>
<path d="M59.3342 46.8748V47.8891H53.3984V39.707H59.1708V40.7213H54.5692V43.2331H58.6739V44.2269H54.5692V46.868H59.3342V46.8748Z" fill="#686868"/>
<path d="M60.8242 46.9572L61.2599 46.045C61.8657 46.5964 62.9072 46.9912 63.9623 46.9912C65.3781 46.9912 65.9839 46.4398 65.9839 45.7319C65.9839 43.7306 61.0284 44.9967 61.0284 41.9608C61.0284 40.7015 62.0086 39.626 64.1597 39.626C65.1195 39.626 66.1133 39.8846 66.7872 40.3475L66.3992 41.2801C65.6844 40.824 64.8812 40.613 64.1529 40.613C62.7642 40.613 62.1652 41.1984 62.1652 41.9131C62.1652 43.9144 67.1207 42.6619 67.1207 45.6638C67.1207 46.9163 66.1133 47.9918 63.9555 47.9918C62.703 47.9918 61.4777 47.5698 60.8242 46.964V46.9572Z" fill="#686868"/>
<path d="M70.6746 40.7281H67.8701V39.7139H74.6363V40.7281H71.8318V47.8891H70.6746V40.7281Z" fill="#686868"/>
<path d="M31.6562 62.4631L33.0245 59.3659C34.2157 60.0671 35.8017 60.5163 37.1904 60.5163C38.3952 60.5163 38.8309 60.2645 38.8309 59.8288C38.8309 58.2428 31.8537 59.5225 31.8537 54.8188C31.8537 52.4772 33.8209 50.5645 37.7281 50.5645C39.4231 50.5645 41.1725 50.9252 42.4862 51.6604L41.2065 54.744C39.9608 54.1109 38.79 53.8046 37.6941 53.8046C36.4484 53.8046 36.0536 54.1654 36.0536 54.601C36.0536 56.1122 43.0308 54.8529 43.0308 59.5021C43.0308 61.8097 41.0636 63.7565 37.1563 63.7565C35.0462 63.7565 32.9224 63.2323 31.6631 62.4563L31.6562 62.4631Z" fill="#686868"/>
<path d="M57.2646 50.8574V63.4708H53.0102V58.8217H49.0825V63.4708H44.8281V50.8574H49.0825V55.3296H53.0102V50.8574H57.2646Z" fill="#686868"/>
<path d="M59.3477 57.1673C59.3477 53.3486 62.3564 50.5713 66.4678 50.5713C70.5793 50.5713 73.588 53.3486 73.588 57.1673C73.588 60.986 70.5793 63.7633 66.4678 63.7633C62.3564 63.7633 59.3477 60.986 59.3477 57.1673ZM69.2927 57.1673C69.2927 55.2001 68.0334 54.0156 66.461 54.0156C64.8886 54.0156 63.6293 55.2069 63.6293 57.1673C63.6293 59.1277 64.8886 60.319 66.461 60.319C68.0334 60.319 69.2927 59.1277 69.2927 57.1673Z" fill="#686868"/>
<path d="M78.2304 54.1589H74.5342V50.8643H86.1742V54.1589H82.478V63.4777H78.2236V54.1589H78.2304Z" fill="#686868"/>
<path d="M40.8183 72.6331H36.4686L35.5701 74.6752H34.3652L38.0683 66.4932H39.2255L42.9421 74.6752H41.7168L40.8183 72.6331ZM40.4099 71.7005L38.6469 67.6912L36.8838 71.7005H40.4099Z" fill="#686868"/>
<path d="M55.624 66.4932L52.8876 74.6752H51.6623L49.4296 68.1405L47.1969 74.6752H45.9444L43.208 66.4932H44.4128L46.6183 73.1436L48.9191 66.4932H49.9946L52.2477 73.1777L54.5009 66.4932H55.6104H55.624Z" fill="#686868"/>
<path d="M62.3496 72.6331H57.9999L57.1013 74.6752H55.8965L59.5995 66.4932H60.7567L64.4733 74.6752H63.2481L62.3496 72.6331ZM61.9411 71.7005L60.1781 67.6912L58.4151 71.7005H61.9411Z" fill="#686868"/>
<path d="M71.4982 74.6752L69.7352 72.1634C69.5719 72.177 69.3949 72.1838 69.2179 72.1838H67.1962V74.6752H66.0254V66.4932H69.2179C71.3417 66.4932 72.6282 67.5687 72.6282 69.3453C72.6282 70.6046 71.9747 71.5168 70.8312 71.9252L72.7712 74.6684H71.4982V74.6752ZM71.4642 69.3453C71.4642 68.1745 70.6814 67.5142 69.1839 67.5142H67.1962V71.1968H69.1839C70.6814 71.1968 71.4642 70.5161 71.4642 69.3521V69.3453Z" fill="#686868"/>
<path d="M74.8672 66.4932H78.3115C80.9391 66.4932 82.7293 68.1541 82.7293 70.5842C82.7293 73.0143 80.9391 74.6752 78.3115 74.6752H74.8672V66.4932ZM78.2435 73.6542C80.2652 73.6542 81.5653 72.4153 81.5653 70.5842C81.5653 68.7531 80.2652 67.5142 78.2435 67.5142H76.038V73.661H78.2435V73.6542Z" fill="#686868"/>
<path d="M2.44043 68.3584C9.5742 78.671 14.4753 78.0516 16.1974 77.3573C16.8918 77.0306 17.3274 76.4043 17.484 75.7645C16.7556 75.744 16.0613 75.6215 15.3806 75.4445C14.6182 75.2539 13.9239 74.8931 13.2023 74.5664C12.4808 74.2397 11.7661 73.8857 11.0513 73.5113C10.3434 73.1233 9.63546 72.7217 8.94114 72.2724C8.95476 72.2452 8.96837 72.2248 8.98198 72.1976C9.73757 72.5243 10.4795 72.8442 11.2351 73.1369C11.9839 73.4364 12.7327 73.7155 13.4814 73.9674C14.2302 74.2261 15.0062 74.3962 15.7073 74.6957C16.3336 74.9544 16.9394 75.2267 17.5248 75.5602C17.5929 75.0769 17.4976 74.5936 17.2049 74.1988C14.0941 70.2644 2.52211 68.6239 2.44724 68.3584H2.44043Z" fill="#686868"/>
<path d="M6.55859 79.4399C15.7277 88.0508 20.5334 86.4035 22.0582 85.3348C22.6776 84.8583 22.9703 84.13 22.9635 83.4561C22.2284 83.599 21.5068 83.6263 20.7921 83.599C19.9957 83.5786 19.2265 83.3676 18.4437 83.2042C17.6609 83.0341 16.878 82.8435 16.0952 82.6256C15.3124 82.3942 14.5296 82.1491 13.7536 81.8632C13.7604 81.836 13.7672 81.8088 13.774 81.7816C14.5841 81.9381 15.3873 82.0947 16.1905 82.2172C16.9938 82.3534 17.7902 82.4623 18.5798 82.5576C19.3762 82.6529 20.1795 82.6529 20.9418 82.7958C21.6226 82.9183 22.2896 83.0545 22.9499 83.2587C22.9023 82.7686 22.6981 82.3193 22.3237 81.9926C18.3552 78.7729 6.68793 79.685 6.55859 79.4399Z" fill="#686868"/>
<path d="M0.636719 56.6909C5.57181 68.2833 10.4116 68.7053 12.2495 68.4126C12.9847 68.2493 13.536 67.7455 13.8219 67.1669C13.1208 66.99 12.4809 66.7245 11.8547 66.4114C11.1536 66.0642 10.5478 65.5605 9.90789 65.0908C9.27484 64.6143 8.64859 64.1242 8.02915 63.6001C7.41652 63.0691 6.80389 62.5245 6.21848 61.9459C6.2389 61.9255 6.25252 61.9051 6.27294 61.8847C6.94683 62.3612 7.60712 62.8377 8.28782 63.2801C8.95491 63.7362 9.6288 64.165 10.3095 64.5735C10.9834 64.9887 11.7049 65.3222 12.3312 65.7647C12.8826 66.1459 13.4135 66.5339 13.9104 66.9763C14.0806 66.5203 14.0942 66.0234 13.8832 65.5741C11.6573 61.0815 0.65714 56.9632 0.636719 56.6909Z" fill="#686868"/>
<path d="M21.7793 98.0434C34.5016 102.155 38.6948 98.554 39.5456 96.9067C39.9132 96.1783 39.7975 95.3615 39.4163 94.7216C38.7628 95.1777 38.0617 95.518 37.3334 95.8039C36.5437 96.1239 35.6929 96.2532 34.8488 96.437C34.0047 96.614 33.1538 96.7705 32.2962 96.8999C31.4317 97.0156 30.5604 97.1245 29.6823 97.1858C29.6823 97.1585 29.6686 97.1313 29.6618 97.0973C30.5127 96.8999 31.3568 96.7024 32.1872 96.471C33.0245 96.2532 33.8482 96.0217 34.6582 95.7631C35.475 95.5112 36.251 95.1709 37.0679 94.9803C37.803 94.8033 38.545 94.6399 39.3074 94.5514C39.0011 94.1294 38.5722 93.8095 38.0481 93.6665C32.4799 92.3664 22.0312 98.2068 21.7861 98.0366L21.7793 98.0434Z" fill="#686868"/>
<path d="M29.75 107.662C48.8573 107.778 53.0232 101.066 53.4657 98.4588C53.6495 97.3084 53.1457 96.2397 52.3425 95.5386C51.6482 96.4439 50.8313 97.2063 49.9668 97.9142C49.0275 98.6902 47.9247 99.2348 46.856 99.8474C45.7805 100.453 44.6914 101.025 43.575 101.576C42.4451 102.107 41.3083 102.631 40.1307 103.094C40.1103 103.06 40.0898 103.019 40.0694 102.985C41.1449 102.346 42.2068 101.713 43.2415 101.045C44.2898 100.392 45.3108 99.7181 46.3047 99.017C47.3053 98.3226 48.2174 97.5262 49.2521 96.9068C50.1779 96.3418 51.1104 95.804 52.1179 95.3616C51.5257 94.9191 50.7973 94.6673 50.0213 94.7013C41.8733 95.3275 30.1516 107.784 29.7432 107.662H29.75Z" fill="#686868"/>
<path d="M13.0117 89.4874C24.0391 96.0222 28.6134 93.3674 29.8455 91.9788C30.356 91.3662 30.4649 90.5697 30.2812 89.8958C29.5732 90.1953 28.8517 90.3791 28.1165 90.5085C27.3133 90.6582 26.4896 90.6174 25.666 90.6174C24.8423 90.6174 24.0119 90.597 23.1814 90.5493C22.351 90.4881 21.5137 90.4132 20.6696 90.2975C20.6696 90.2702 20.6696 90.243 20.6696 90.209C21.5137 90.1885 22.351 90.1749 23.1814 90.1205C24.0119 90.0796 24.8355 90.0252 25.6524 89.9367C26.4692 89.8618 27.2724 89.6916 28.0757 89.6644C28.7904 89.6372 29.5051 89.6304 30.2199 89.6984C30.0497 89.2288 29.7366 88.8339 29.2805 88.5957C24.4952 86.2541 13.2023 89.6916 13.0117 89.4806V89.4874Z" fill="#686868"/>
<path d="M28.8181 15.5901C29.138 16.2368 29.7098 16.6316 30.3157 16.7609C30.3293 16.0394 30.4314 15.3314 30.5879 14.6303C30.7649 13.7998 31.1325 13.0238 31.4592 12.2206C31.7928 11.4174 32.1536 10.621 32.5552 9.81773C32.9636 9.02131 33.3924 8.22489 33.8825 7.43527C33.9098 7.44889 33.937 7.4557 33.9642 7.46931C33.6103 8.30657 33.2631 9.13703 32.9568 9.9743C32.6369 10.8048 32.351 11.6284 32.0923 12.4521C31.8268 13.2757 31.6635 14.1198 31.3707 14.9026C31.1325 15.5493 30.8874 16.1891 30.5879 16.8017C31.1189 16.8494 31.6566 16.6996 32.0855 16.3253C34.2705 14.3989 35.5435 10.4236 36.6802 6.80903C37.7421 3.22172 38.6679 -0.0116181 38.6134 0.00199596C32.5075 4.22916 30.1931 7.86412 29.1176 10.4304C28.1034 13.0375 28.328 14.5827 28.8249 15.5901H28.8181Z" fill="#686868"/>
<path d="M1.16119 44.8945C3.72744 57.3174 8.36983 58.7536 10.2213 58.883C10.9633 58.883 11.5964 58.5222 11.9912 58.0321C11.3513 57.7122 10.7795 57.3106 10.235 56.8749C9.61552 56.3848 9.12541 55.7586 8.59447 55.1663C8.07032 54.5673 7.55299 53.9479 7.04246 53.3012C6.54555 52.6477 6.05544 51.9875 5.59257 51.2863C5.61299 51.2659 5.63341 51.2523 5.65383 51.2319C6.21881 51.8445 6.77699 52.4571 7.34878 53.0357C7.91376 53.6211 8.48555 54.1929 9.07096 54.7375C9.64956 55.2889 10.2894 55.7722 10.8204 56.3372C11.2764 56.8273 11.7257 57.3174 12.1137 57.8483C12.3792 57.4399 12.4881 56.9566 12.3724 56.4665C11.0858 51.6199 1.12035 45.1668 1.15438 44.8945H1.16119Z" fill="#686868"/>
<path d="M26.4766 5.58398C21.984 10.7982 20.6975 14.7462 20.3094 17.4146C19.9827 20.117 20.5613 21.5465 21.2692 22.411C21.7321 22.9691 22.372 23.2278 22.9846 23.2278C22.8212 22.5267 22.7464 21.8256 22.7259 21.1176C22.6919 20.2872 22.8485 19.4703 22.9574 18.6399C23.0731 17.8094 23.2161 16.9721 23.393 16.1281C23.5768 15.284 23.781 14.4399 24.0329 13.5891C24.0601 13.5891 24.0874 13.6027 24.1146 13.6027C23.9921 14.474 23.8763 15.3385 23.8015 16.1893C23.7062 17.0402 23.6449 17.8911 23.6041 18.7284C23.5564 19.5656 23.6041 20.4029 23.5156 21.2129C23.4475 21.8868 23.3658 22.5539 23.2297 23.2074C23.7334 23.1461 24.1963 22.8943 24.5094 22.4518C27.3343 18.0817 26.2179 5.74055 26.4766 5.58398Z" fill="#686868"/>
<path d="M16.66 13.3232C11.1191 25.2287 14.2708 29.2721 15.6254 30.5314C16.2039 30.9807 16.8847 31.0896 17.4769 30.9535C17.1569 30.3068 16.9323 29.6397 16.7485 28.959C16.5307 28.1694 16.4967 27.3525 16.415 26.5289C16.3401 25.7052 16.2856 24.868 16.2584 24.0239C16.2448 23.1798 16.238 22.3221 16.2856 21.4576C16.3129 21.4576 16.3401 21.4576 16.3673 21.4576C16.4558 22.3153 16.5443 23.1662 16.6668 24.0035C16.7757 24.8407 16.9051 25.6712 17.0616 26.4812C17.2114 27.2981 17.4428 28.0945 17.5449 28.8841C17.6334 29.5512 17.7083 30.2183 17.7219 30.8786C18.1848 30.7084 18.5728 30.3749 18.7702 29.8847C20.506 25.0858 16.4762 13.5275 16.6804 13.3232H16.66Z" fill="#686868"/>
<path d="M9.17314 22.7578C6.50479 35.3712 10.2963 38.6454 11.9096 39.5644C12.5698 39.8775 13.271 39.8298 13.8155 39.5644C13.3663 39.0062 13.0055 38.4004 12.6788 37.7809C12.3044 37.0662 12.0934 36.2766 11.8415 35.5006C11.5896 34.7246 11.365 33.9282 11.154 33.1181C10.9566 32.3081 10.766 31.4844 10.623 30.6404C10.6503 30.6404 10.6775 30.6267 10.7047 30.6199C10.977 31.43 11.2425 32.2332 11.542 33.016C11.8279 33.7988 12.1274 34.568 12.4541 35.3236C12.7673 36.0792 13.1689 36.7939 13.4275 37.5427C13.6522 38.1757 13.8632 38.8088 14.0197 39.4487C14.4282 39.1832 14.7277 38.7816 14.8162 38.271C15.5105 33.2611 9.03019 22.9961 9.17314 22.7578Z" fill="#686868"/>
<path d="M4.00586 33.4316C4.03989 46.2084 8.32832 48.6045 10.105 49.1354C10.8197 49.2988 11.5004 49.0946 11.9837 48.6998C11.4255 48.2505 10.949 47.74 10.5066 47.1954C9.99604 46.576 9.63527 45.8612 9.23366 45.1601C8.83204 44.459 8.45085 43.7375 8.08327 42.9955C7.7293 42.2467 7.37534 41.4911 7.06222 40.7083C7.08944 40.6947 7.10986 40.6811 7.13709 40.6743C7.56594 41.4026 7.99478 42.1174 8.44404 42.8117C8.87969 43.5128 9.33576 44.1935 9.79864 44.8538C10.2615 45.5209 10.7925 46.1335 11.1941 46.8006C11.5412 47.3724 11.8816 47.9442 12.1607 48.5432C12.501 48.1961 12.712 47.7468 12.6984 47.2363C12.3785 42.2127 3.92418 33.6835 4.01267 33.4248L4.00586 33.4316Z" fill="#686868"/>
<path d="M25.9516 64.5188C24.7808 72.4013 24.0729 76.4924 22.3167 77.9286C21.7585 78.4664 21.0506 78.6774 20.4243 78.5549C20.7102 77.8606 20.9212 77.1731 21.1186 76.4992C21.3433 75.7504 21.4318 75.0084 21.6019 74.2801C21.7721 73.5517 21.9627 72.837 22.1669 72.1359C22.3643 71.4347 22.589 70.7472 22.8068 70.0733C22.7796 70.0733 22.7591 70.0733 22.7319 70.0733C22.3916 70.7404 22.0852 71.4211 21.7925 72.1154C21.5066 72.8166 21.2412 73.5245 20.9961 74.2528C20.7511 74.9812 20.4652 75.7232 20.3495 76.4787C20.2473 77.1458 20.1861 77.8265 20.2269 78.5072C19.7777 78.3711 19.4033 78.058 19.1991 77.5951C16.7758 71.9453 25.8836 64.2193 25.938 64.512L25.9516 64.5188Z" fill="#686868"/>
<path d="M28.8242 70.5296C29.3755 78.5687 29.6955 82.7822 28.2796 84.5861C27.8508 85.2464 27.1769 85.6072 26.5234 85.6208C26.6459 84.8652 26.6936 84.13 26.7276 83.4153C26.7753 82.6257 26.6868 81.8701 26.6936 81.1145C26.6936 80.3589 26.7208 79.6102 26.7685 78.8682C26.8025 78.133 26.8706 77.4047 26.9386 76.69C26.9114 76.69 26.891 76.69 26.8638 76.6968C26.6732 77.4251 26.5302 78.1671 26.3941 78.9227C26.2715 79.6714 26.1694 80.4406 26.0946 81.2098C26.0197 81.9858 25.904 82.7754 25.9652 83.5583C26.0197 84.2458 26.115 84.9401 26.326 85.614C25.8563 85.5731 25.407 85.3485 25.1075 84.9333C21.3909 79.862 28.7085 70.2573 28.8242 70.5296Z" fill="#686868"/>
<path d="M24.3864 58.0726C21.6636 65.4719 20.0775 69.2566 18.0694 70.2709C17.4228 70.6657 16.7012 70.7201 16.1226 70.4819C16.5447 69.876 16.8918 69.2634 17.2186 68.6576C17.593 67.9769 17.838 67.2826 18.1579 66.6155C18.4779 65.9484 18.8046 65.2949 19.1518 64.6619C19.4853 64.022 19.8461 63.4094 20.2 62.8035C20.1796 62.7967 20.1524 62.7899 20.132 62.7831C19.6623 63.3549 19.2266 63.9471 18.7978 64.5597C18.3758 65.1724 17.9673 65.8054 17.5793 66.4589C17.1913 67.1124 16.7557 67.7659 16.4834 68.4738C16.2452 69.0932 16.0409 69.7263 15.9388 70.3934C15.5304 70.1687 15.2241 69.7807 15.1288 69.2906C13.9648 63.3141 24.3864 57.7731 24.3864 58.0726Z" fill="#686868"/>
<path d="M38.4768 80.2159C42.9763 87.4722 45.7944 91.2501 45.3247 93.5441C45.2567 94.3609 44.7597 95.0008 44.0858 95.2799C43.7863 94.5039 43.4324 93.796 43.0716 93.1016C42.6836 92.3461 42.2003 91.679 41.7987 90.971C41.3971 90.2631 41.0227 89.5552 40.6823 88.8473C40.3284 88.1461 40.022 87.4382 39.7225 86.7439C39.7021 86.7575 39.6817 86.7711 39.6545 86.7847C39.8451 87.5471 40.0901 88.2959 40.3488 89.0583C40.6211 89.8139 40.9206 90.5694 41.2609 91.3182C41.6013 92.067 41.9076 92.8634 42.3909 93.5577C42.8197 94.1908 43.303 94.7966 43.9021 95.3412C43.4119 95.4909 42.8538 95.4705 42.3432 95.2254C35.9174 92.101 38.2522 80.0117 38.4837 80.2159H38.4768Z" fill="#686868"/>
<path d="M32.9975 75.8458C35.4344 83.6875 36.932 87.8058 35.945 89.9023C35.6795 90.6579 35.0805 91.1616 34.4066 91.3114C34.3317 90.5218 34.1888 89.7866 34.0458 89.0582C33.8893 88.2618 33.6102 87.5335 33.4264 86.7779C33.2358 86.0291 33.0724 85.2803 32.9363 84.5384C32.7865 83.8032 32.6776 83.0681 32.5755 82.3397C32.5551 82.3465 32.5278 82.3601 32.5074 82.3669C32.5006 83.1293 32.5347 83.8985 32.5823 84.6745C32.6436 85.4437 32.7321 86.2265 32.8478 87.0093C32.9703 87.7921 33.052 88.609 33.3107 89.3646C33.5421 90.0453 33.8212 90.7123 34.216 91.3386C33.7327 91.393 33.229 91.2637 32.8205 90.9234C27.7697 86.6962 32.8274 75.6007 33.0043 75.8458H32.9975Z" fill="#686868"/>
<path d="M28.4775 22.1044C27.9669 21.6075 27.7219 20.9541 27.7491 20.3346C28.4094 20.5456 29.0561 20.6886 29.7027 20.8247C30.4651 20.9881 31.2139 21.0017 31.9559 21.1106C32.6978 21.2127 33.433 21.3421 34.1545 21.485C34.8761 21.6143 35.5908 21.7777 36.2987 21.9411C36.2987 21.9138 36.2987 21.8866 36.2987 21.8662C35.5976 21.5803 34.8897 21.3284 34.1613 21.0902C33.4398 20.8656 32.6978 20.6545 31.9559 20.4708C31.2071 20.287 30.4515 20.0555 29.6891 20.0147C29.0561 19.9738 28.4162 19.9738 27.7831 20.0691C27.8784 19.545 28.1848 19.0753 28.6681 18.803C31.2615 17.3327 35.0326 18.6397 37.7691 20.4776C40.5667 22.2882 42.3434 24.6367 42.3706 24.6026C33.8618 24.2282 30.0499 23.8266 28.4707 22.1112L28.4775 22.1044Z" fill="#686868"/>
<path d="M24.1211 51.4494C20.0096 58.0794 17.6884 61.3945 15.5238 61.9526C14.8227 62.1977 14.1147 62.0956 13.5974 61.7484C14.1215 61.2515 14.5776 60.741 15.0201 60.2237C15.5238 59.6451 15.8982 59.0188 16.3406 58.4402C16.7831 57.8616 17.2392 57.2966 17.702 56.7589C18.1581 56.2143 18.6278 55.6902 19.0975 55.1796C19.0771 55.166 19.0566 55.1524 19.0362 55.1456C18.4644 55.6017 17.9267 56.085 17.3821 56.5887C16.8512 57.0992 16.327 57.6234 15.8165 58.1747C15.306 58.7261 14.7546 59.2639 14.3462 59.8969C13.9922 60.4415 13.6723 61.0133 13.434 61.6259C13.0733 61.3196 12.8486 60.8703 12.8486 60.3666C12.9031 54.3015 24.1687 51.1567 24.1211 51.4494Z" fill="#686868"/>
<path d="M36.1148 28.2787C28.1505 29.6197 24.3386 30.0485 22.4667 28.7211C21.854 28.3467 21.4728 27.7613 21.3639 27.1555C22.0446 27.2236 22.7049 27.2304 23.3516 27.2236C24.1072 27.2236 24.8219 27.0874 25.5503 27.0398C26.2786 26.9853 27.0002 26.9581 27.7149 26.9513C28.4296 26.9309 29.1376 26.9445 29.8387 26.9513C29.8387 26.9241 29.8319 26.9037 29.8251 26.8764C29.1035 26.7403 28.3752 26.6518 27.6332 26.5701C26.898 26.502 26.1561 26.4544 25.4073 26.4272C24.6585 26.4067 23.8893 26.3387 23.1542 26.4544C22.5415 26.5429 21.9289 26.679 21.3367 26.9037C21.3095 26.3863 21.4865 25.8758 21.8813 25.5218C26.4352 21.39 36.3938 28.1153 36.1148 28.2855V28.2787Z" fill="#686868"/>
<path d="M31.1598 33.0638C23.9035 35.9976 20.2481 37.2433 18.1652 36.3516C17.4845 36.1201 16.9807 35.63 16.7493 35.0514C17.43 34.9698 18.0767 34.8404 18.7029 34.6907C19.4381 34.5273 20.0916 34.2482 20.7859 34.0508C21.4734 33.8466 22.1609 33.6696 22.8484 33.513C23.5291 33.3429 24.2098 33.2067 24.8837 33.0706C24.8701 33.0502 24.8633 33.0229 24.8497 33.0025C24.1281 33.0229 23.4066 33.0842 22.6782 33.1659C21.9567 33.2544 21.2351 33.3633 20.5068 33.4926C19.7852 33.6288 19.0228 33.7309 18.3421 33.9963C17.7635 34.2142 17.1986 34.4728 16.6744 34.82C16.5451 34.3299 16.6064 33.8057 16.9059 33.3837C20.3911 28.4418 31.3776 32.846 31.1598 33.057V33.0638Z" fill="#686868"/>
<path d="M27.5105 38.6863C21.1323 43.0496 17.7765 45.0713 15.5778 44.6561C14.8563 44.5744 14.264 44.2 13.9237 43.6827C14.584 43.458 15.183 43.1858 15.7752 42.9067C16.4559 42.5935 17.0413 42.1783 17.6676 41.838C18.2938 41.4908 18.9269 41.1709 19.5599 40.8714C20.1862 40.565 20.8192 40.286 21.4455 40.0137C21.4318 39.9933 21.4182 39.9728 21.3978 39.9524C20.7035 40.1294 20.016 40.3404 19.3285 40.5719C18.6478 40.8101 17.9671 41.0756 17.2864 41.3547C16.6125 41.6406 15.8909 41.8992 15.2783 42.3077C14.7541 42.648 14.2504 43.0292 13.808 43.4785C13.5833 43.036 13.5425 42.5187 13.7467 42.049C16.1292 36.5081 27.6807 38.4276 27.5173 38.6795L27.5105 38.6863Z" fill="#686868"/>
<path d="M25.162 44.9014C19.8321 50.5104 16.9255 53.2264 14.6928 53.3013C13.9644 53.383 13.3041 53.1379 12.8685 52.6955C13.4743 52.3279 14.0189 51.9331 14.543 51.5315C15.1488 51.0754 15.6389 50.5444 16.1835 50.0748C16.7281 49.6051 17.2794 49.1558 17.8444 48.727C18.3958 48.2913 18.9608 47.8829 19.519 47.4813C19.4985 47.4677 19.4849 47.4472 19.4645 47.4336C18.8178 47.7536 18.1916 48.1143 17.5653 48.4819C16.9459 48.8631 16.3333 49.2647 15.7206 49.6868C15.1148 50.1156 14.4681 50.524 13.944 51.0482C13.4947 51.4974 13.0727 51.9807 12.7255 52.5253C12.426 52.1441 12.2899 51.654 12.392 51.1571C13.6309 45.2418 25.2709 44.6155 25.1688 44.8946L25.162 44.9014Z" fill="#686868"/>
<path d="M35.7129 15.7537C35.4747 15.4814 35.4611 15.1138 35.6244 14.7599C36.026 14.8688 36.4481 14.9437 36.8701 15.0049C37.367 15.0798 37.898 15.073 38.4153 15.1138C38.9326 15.1547 39.4432 15.2023 39.9537 15.2568C40.471 15.3044 40.9748 15.3725 41.4921 15.4338C41.4989 15.4202 41.5057 15.4065 41.5125 15.3929C41.036 15.2636 40.5459 15.1479 40.0558 15.039C39.5657 14.9369 39.0688 14.8416 38.5651 14.7599C38.0613 14.6782 37.578 14.5625 37.0471 14.5557C36.6115 14.5421 36.169 14.5557 35.7129 14.6101C35.8967 14.3174 36.203 14.052 36.5978 13.8954C40.9067 12.1732 46.0732 16.5501 45.9303 16.5842C38.6808 16.9041 36.4889 16.7067 35.7197 15.7537H35.7129Z" fill="#686868"/>
<path d="M39.1849 13.4731C38.688 13.6705 38.2047 13.7046 37.8439 13.5956C38.2183 13.2553 38.5519 12.9081 38.8854 12.561C39.2734 12.1457 39.5797 11.7169 39.9337 11.2949C40.2876 10.8728 40.6552 10.4576 41.0364 10.0424C41.4108 9.62715 41.8056 9.21192 42.1936 8.79669L42.1392 8.78308C41.6627 9.17788 41.2134 9.57269 40.7709 9.97431C40.3353 10.3759 39.9201 10.7843 39.5185 11.1996C39.1168 11.6148 38.688 12.0232 38.3749 12.4521C38.1162 12.806 37.878 13.1668 37.6942 13.5412C37.4151 13.4119 37.2381 13.194 37.2381 12.8877C36.9046 9.53185 46.3731 5.01879 46.6522 5.24342C42.7314 10.9817 40.7982 12.8605 39.1781 13.4731H39.1849Z" fill="#686868"/>
<path d="M46.5841 97.111C46.5297 97.111 46.482 97.111 46.4275 97.0906C23.1271 91.8492 13.2637 73.4021 11.807 57.8821C9.93507 37.9852 20.1252 20.1984 37.7622 12.5677C38.123 12.4111 38.5382 12.5745 38.6948 12.9353C38.8513 13.296 38.688 13.7113 38.3272 13.8678C21.262 21.2603 11.4054 38.4821 13.2161 57.7528C14.6251 72.7759 24.1754 90.6375 46.7339 95.7088C47.1151 95.7973 47.3533 96.1717 47.2716 96.5597C47.1967 96.8864 46.904 97.111 46.5773 97.111H46.5841Z" fill="#686868"/>
<path d="M115.559 68.3584C108.426 78.671 103.525 78.0516 101.802 77.3573C101.108 77.0306 100.672 76.4043 100.516 75.7645C101.244 75.744 101.939 75.6215 102.619 75.4445C103.382 75.2539 104.076 74.8931 104.798 74.5664C105.519 74.2397 106.234 73.8857 106.949 73.5113C107.656 73.1233 108.364 72.7217 109.059 72.2724C109.045 72.2452 109.032 72.2248 109.018 72.1976C108.262 72.5243 107.52 72.8442 106.765 73.1369C106.016 73.4364 105.267 73.7155 104.518 73.9674C103.77 74.2261 102.994 74.3962 102.293 74.6957C101.666 74.9544 101.06 75.2267 100.475 75.5602C100.407 75.0769 100.502 74.5936 100.795 74.1988C103.906 70.2644 115.478 68.6239 115.553 68.3584H115.559Z" fill="#686868"/>
<path d="M111.434 79.4399C102.265 88.0508 97.4595 86.4035 95.9347 85.3348C95.3153 84.8583 95.0226 84.13 95.0294 83.4561C95.7646 83.599 96.4861 83.6263 97.2009 83.599C97.9973 83.5786 98.7665 83.3676 99.5493 83.2042C100.332 83.0341 101.115 82.8435 101.898 82.6256C102.681 82.3942 103.463 82.1491 104.239 81.8632C104.233 81.836 104.226 81.8088 104.219 81.7816C103.409 81.9381 102.606 82.0947 101.802 82.2172C100.999 82.3534 100.203 82.4623 99.4131 82.5576C98.6167 82.6529 97.8135 82.6529 97.0511 82.7958C96.3704 82.9183 95.7033 83.0545 95.043 83.2587C95.0907 82.7686 95.2949 82.3193 95.6693 81.9926C99.6378 78.7729 111.305 79.685 111.434 79.4399Z" fill="#686868"/>
<path d="M117.364 56.6909C112.429 68.2833 107.589 68.7053 105.751 68.4126C105.016 68.2493 104.465 67.7455 104.179 67.1669C104.88 66.99 105.52 66.7245 106.146 66.4114C106.847 66.0642 107.453 65.5605 108.093 65.0908C108.726 64.6143 109.352 64.1242 109.972 63.6001C110.584 63.0691 111.197 62.5245 111.782 61.9459C111.762 61.9255 111.748 61.9051 111.728 61.8847C111.054 62.3612 110.394 62.8377 109.713 63.2801C109.046 63.7362 108.372 64.165 107.691 64.5735C107.017 64.9887 106.296 65.3222 105.67 65.7647C105.118 66.1459 104.587 66.5339 104.09 66.9763C103.92 66.5203 103.907 66.0234 104.118 65.5741C106.337 61.0951 117.337 56.97 117.357 56.6977L117.364 56.6909Z" fill="#686868"/>
<path d="M96.2213 98.0434C83.499 102.155 79.3058 98.554 78.455 96.9067C78.0874 96.1783 78.2031 95.3615 78.5843 94.7216C79.2378 95.1777 79.9457 95.518 80.6673 95.8039C81.4569 96.1239 82.3078 96.2532 83.1518 96.437C83.9959 96.614 84.8468 96.7705 85.7045 96.8999C86.569 97.0156 87.4402 97.1245 88.3184 97.1858C88.3184 97.1585 88.332 97.1313 88.3388 97.0973C87.4879 96.8999 86.6438 96.7024 85.8134 96.471C84.9761 96.2532 84.1525 96.0217 83.3424 95.7631C82.5256 95.5112 81.7496 95.1709 80.9327 94.9803C80.1976 94.8033 79.4556 94.6399 78.6932 94.5514C78.9995 94.1294 79.4284 93.8095 79.9525 93.6665C85.5207 92.3664 95.9695 98.2068 96.2145 98.0366L96.2213 98.0434Z" fill="#686868"/>
<path d="M88.2428 107.662C69.1354 107.778 64.9695 101.066 64.5271 98.4588C64.3433 97.3084 64.847 96.2397 65.6503 95.5386C66.3446 96.4439 67.1614 97.2063 68.0259 97.9142C68.9653 98.6902 70.068 99.2348 71.1367 99.8474C72.2122 100.453 73.3013 101.025 74.4177 101.576C75.5477 102.107 76.6844 102.631 77.8621 103.094C77.8825 103.06 77.9029 103.019 77.9233 102.985C76.8478 102.346 75.7859 101.713 74.7512 101.045C73.703 100.392 72.6819 99.7181 71.6881 99.017C70.6874 98.3226 69.7753 97.5262 68.7406 96.9068C67.8149 96.3418 66.8823 95.804 65.8749 95.3616C66.4671 94.9191 67.1954 94.6673 67.9714 94.7013C76.1195 95.3275 87.8412 107.784 88.2496 107.662H88.2428Z" fill="#686868"/>
<path d="M104.989 89.4874C93.9612 96.0222 89.3869 93.3674 88.1548 91.9788C87.6443 91.3662 87.5354 90.5697 87.7192 89.8958C88.4271 90.1953 89.1487 90.3791 89.8838 90.5085C90.6871 90.6582 91.5107 90.6174 92.3344 90.6174C93.158 90.6174 93.9885 90.597 94.8189 90.5493C95.6494 90.4881 96.4866 90.4132 97.3307 90.2975C97.3307 90.2702 97.3307 90.243 97.3307 90.209C96.4866 90.1885 95.6494 90.1749 94.8189 90.1205C93.9885 90.0796 93.1648 90.0252 92.348 89.9367C91.5311 89.8618 90.7279 89.6916 89.9247 89.6644C89.2099 89.6372 88.4952 89.6304 87.7805 89.6984C87.9506 89.2288 88.2637 88.8339 88.7198 88.5957C93.5052 86.2541 104.798 89.6916 104.989 89.4806V89.4874Z" fill="#686868"/>
<path d="M89.1756 15.5901C88.8556 16.2368 88.2839 16.6316 87.678 16.7609C87.6644 16.0394 87.5623 15.3314 87.4057 14.6303C87.2288 13.7998 86.8612 13.0238 86.5344 12.2206C86.2009 11.4174 85.8401 10.621 85.4385 9.81773C85.0301 9.02131 84.6012 8.22489 84.1111 7.43527C84.0839 7.44889 84.0567 7.4557 84.0295 7.46931C84.3834 8.30657 84.7306 9.13703 85.0369 9.9743C85.3568 10.8048 85.6427 11.6284 85.9014 12.4521C86.1669 13.2757 86.3302 14.1198 86.6229 14.9026C86.8612 15.5493 87.1062 16.1891 87.4057 16.8017C86.8748 16.8494 86.337 16.6996 85.9082 16.3253C83.7231 14.3989 82.4502 10.4236 81.3135 6.80903C80.2516 3.22172 79.3326 -0.0116181 79.3871 0.00199596C85.493 4.22916 87.8074 7.86412 88.8829 10.4304C89.8971 13.0375 89.6725 14.5827 89.1756 15.5901Z" fill="#686868"/>
<path d="M116.839 44.8945C114.273 57.3174 109.631 58.7536 107.779 58.883C107.037 58.883 106.404 58.5222 106.009 58.0321C106.649 57.7122 107.221 57.3106 107.765 56.8749C108.385 56.3848 108.875 55.7586 109.406 55.1663C109.93 54.5673 110.447 53.9479 110.958 53.3012C111.455 52.6477 111.945 51.9875 112.408 51.2863C112.387 51.2659 112.367 51.2523 112.347 51.2319C111.782 51.8445 111.223 52.4571 110.652 53.0357C110.087 53.6211 109.515 54.1929 108.929 54.7375C108.351 55.2889 107.711 55.7722 107.18 56.3372C106.724 56.8273 106.275 57.3174 105.887 57.8483C105.621 57.4399 105.512 56.9566 105.628 56.4665C106.915 51.6199 116.88 45.1668 116.846 44.8945H116.839Z" fill="#686868"/>
<path d="M91.5241 5.5835C96.0167 10.7977 97.3033 14.7458 97.6913 17.4141C98.018 20.1165 97.4394 21.546 96.7315 22.4105C96.2686 22.9687 95.6287 23.2273 95.0161 23.2273C95.1795 22.5262 95.2543 21.8251 95.2748 21.1171C95.3088 20.2867 95.1522 19.4698 95.0433 18.6394C94.9276 17.8089 94.7847 16.9717 94.6077 16.1276C94.4239 15.2835 94.2197 14.4394 93.9678 13.5886C93.9406 13.5886 93.9134 13.6022 93.8861 13.6022C94.0087 14.4735 94.1244 15.338 94.1993 16.1889C94.2946 17.0397 94.3558 17.8906 94.3967 18.7279C94.4443 19.5651 94.3967 20.4024 94.4852 21.2124C94.5532 21.8863 94.6349 22.5534 94.771 23.2069C94.2673 23.1456 93.8045 22.8938 93.4913 22.4513C90.6664 18.0812 91.7828 5.74006 91.5241 5.5835Z" fill="#686868"/>
<path d="M101.334 13.3232C106.874 25.2287 103.723 29.2721 102.368 30.5314C101.79 30.9807 101.109 31.0896 100.517 30.9535C100.837 30.3068 101.061 29.6397 101.245 28.959C101.463 28.1694 101.497 27.3525 101.579 26.5289C101.653 25.7052 101.708 24.868 101.735 24.0239C101.749 23.1798 101.756 22.3221 101.708 21.4576C101.681 21.4576 101.653 21.4576 101.626 21.4576C101.538 22.3153 101.449 23.1662 101.327 24.0035C101.218 24.8407 101.088 25.6712 100.932 26.4812C100.782 27.2981 100.551 28.0945 100.449 28.8841C100.36 29.5512 100.285 30.2183 100.272 30.8786C99.8088 30.7084 99.4208 30.3749 99.2234 29.8847C97.4876 25.0858 101.517 13.5275 101.313 13.3232H101.334Z" fill="#686868"/>
<path d="M108.828 22.7578C111.496 35.3712 107.705 38.6454 106.091 39.5644C105.431 39.8775 104.73 39.8298 104.186 39.5644C104.635 39.0062 104.996 38.4004 105.322 37.7809C105.697 37.0662 105.908 36.2766 106.16 35.5006C106.411 34.7246 106.636 33.9282 106.847 33.1181C107.044 32.3081 107.235 31.4844 107.378 30.6404C107.351 30.6404 107.324 30.6267 107.296 30.6199C107.024 31.43 106.759 32.2332 106.459 33.016C106.173 33.7988 105.874 34.568 105.547 35.3236C105.234 36.0792 104.832 36.7939 104.574 37.5427C104.349 38.1757 104.138 38.8088 103.981 39.4487C103.573 39.1832 103.273 38.7816 103.185 38.271C102.491 33.2611 108.971 22.9961 108.828 22.7578Z" fill="#686868"/>
<path d="M113.994 33.4311C113.96 46.2079 109.672 48.604 107.895 49.1349C107.18 49.2983 106.499 49.0941 106.016 48.6993C106.574 48.25 107.051 47.7395 107.493 47.1949C108.004 46.5755 108.365 45.8608 108.766 45.1596C109.168 44.4585 109.549 43.737 109.917 42.995C110.271 42.2462 110.624 41.4906 110.938 40.7078C110.91 40.6942 110.89 40.6806 110.863 40.6738C110.434 41.4022 110.005 42.1169 109.556 42.8112C109.12 43.5123 108.664 44.193 108.201 44.8533C107.738 45.5204 107.207 46.133 106.806 46.8001C106.459 47.3719 106.118 47.9437 105.839 48.5427C105.499 48.1956 105.288 47.7463 105.301 47.2358C105.621 42.2122 114.076 33.683 113.987 33.4243L113.994 33.4311Z" fill="#686868"/>
<path d="M92.0479 64.5188C93.2187 72.4013 93.9266 76.4924 95.6828 77.9286C96.241 78.4664 96.9489 78.6774 97.5752 78.5549C97.2893 77.8606 97.0782 77.1731 96.8808 76.4992C96.6562 75.7504 96.5677 75.0084 96.3975 74.2801C96.2274 73.5517 96.0368 72.837 95.8326 72.1359C95.6352 71.4347 95.4105 70.7472 95.1927 70.0733C95.2199 70.0733 95.2404 70.0733 95.2676 70.0733C95.6079 70.7404 95.9142 71.4211 96.2069 72.1154C96.4928 72.8166 96.7583 73.5245 97.0034 74.2528C97.2484 74.9812 97.5343 75.7232 97.65 76.4787C97.7521 77.1458 97.8134 77.8265 97.7726 78.5072C98.2218 78.3711 98.5962 78.058 98.7936 77.5951C101.217 71.9453 92.1091 64.2193 92.0547 64.512L92.0479 64.5188Z" fill="#686868"/>
<path d="M89.1759 70.5296C88.6245 78.5687 88.3046 82.7822 89.7204 84.5861C90.1493 85.2464 90.8232 85.6072 91.4767 85.6208C91.3541 84.8652 91.3065 84.13 91.2724 83.4153C91.2248 82.6257 91.3133 81.8701 91.3065 81.1145C91.3065 80.3589 91.2792 79.6102 91.2316 78.8682C91.1976 78.133 91.1295 77.4047 91.0614 76.69C91.0887 76.69 91.1091 76.69 91.1363 76.6968C91.3269 77.4251 91.4698 78.1671 91.606 78.9227C91.7285 79.6714 91.8306 80.4406 91.9055 81.2098C91.9804 81.9858 92.0961 82.7754 92.0348 83.5583C91.9804 84.2458 91.8851 84.9401 91.6741 85.614C92.1437 85.5731 92.593 85.3485 92.8925 84.9333C96.6092 79.862 89.2916 70.2573 89.1759 70.5296Z" fill="#686868"/>
<path d="M93.6143 58.0726C96.3371 65.4719 97.9231 69.2566 99.9312 70.2709C100.578 70.6657 101.299 70.7201 101.878 70.4819C101.456 69.876 101.109 69.2634 100.782 68.6576C100.408 67.9769 100.163 67.2826 99.8427 66.6155C99.5228 65.9484 99.196 65.2949 98.8489 64.6619C98.5153 64.022 98.1546 63.4094 97.8006 62.8035C97.821 62.7967 97.8482 62.7899 97.8687 62.7831C98.3383 63.3549 98.774 63.9471 99.2028 64.5597C99.6249 65.1724 100.033 65.8054 100.421 66.4589C100.809 67.1124 101.245 67.7659 101.517 68.4738C101.755 69.0932 101.96 69.7263 102.062 70.3934C102.47 70.1687 102.777 69.7807 102.872 69.2906C104.036 63.3141 93.6143 57.7731 93.6143 58.0726Z" fill="#686868"/>
<path d="M79.517 80.2159C75.0175 87.4722 72.1994 91.2501 72.6691 93.5441C72.7372 94.3609 73.2341 95.0008 73.9148 95.2799C74.2143 94.5039 74.5682 93.796 74.929 93.1016C75.317 92.3461 75.8003 91.679 76.2019 90.971C76.6036 90.2631 76.9779 89.5552 77.3183 88.8473C77.6723 88.1461 77.9786 87.4382 78.2781 86.7439C78.2985 86.7575 78.3189 86.7711 78.3462 86.7847C78.1556 87.5471 77.9105 88.2959 77.6518 89.0583C77.3796 89.8139 77.08 90.5694 76.7397 91.3182C76.3993 92.067 76.093 92.8634 75.6097 93.5577C75.1809 94.1908 74.6976 94.7966 74.0986 95.3412C74.5887 95.4909 75.1468 95.4705 75.6574 95.2254C82.0832 92.101 79.7484 80.0117 79.517 80.2159Z" fill="#686868"/>
<path d="M84.9961 75.8458C82.5592 83.6875 81.0617 87.8058 82.0487 89.9023C82.3142 90.6579 82.9132 91.1616 83.5871 91.3114C83.6619 90.5218 83.8049 89.7866 83.9478 89.0582C84.1044 88.2618 84.3835 87.5335 84.5673 86.7779C84.7579 86.0291 84.9212 85.2803 85.0574 84.5384C85.2071 83.8032 85.3161 83.0681 85.4182 82.3397C85.4386 82.3465 85.4658 82.3601 85.4862 82.3669C85.493 83.1293 85.459 83.8985 85.4114 84.6745C85.3501 85.4437 85.2616 86.2265 85.1459 87.0093C85.0234 87.7921 84.9417 88.609 84.683 89.3646C84.4516 90.0453 84.1725 90.7123 83.7777 91.3386C84.261 91.393 84.7647 91.2637 85.1731 90.9234C90.2239 86.6962 85.1663 75.6007 84.9893 75.8458H84.9961Z" fill="#686868"/>
<path d="M89.5162 22.1044C90.0267 21.6075 90.2718 20.9541 90.2445 20.3346C89.5843 20.5456 88.9376 20.6886 88.2909 20.8247C87.5285 20.9881 86.7798 21.0017 86.0378 21.1106C85.2958 21.2127 84.5607 21.3421 83.8391 21.485C83.1176 21.6143 82.4028 21.7777 81.6949 21.9411C81.6949 21.9138 81.6949 21.8866 81.6949 21.8662C82.396 21.5803 83.104 21.3284 83.8323 21.0902C84.5539 20.8656 85.2958 20.6545 86.0378 20.4708C86.7866 20.287 87.5421 20.0555 88.3045 20.0147C88.9376 19.9738 89.5775 19.9738 90.2105 20.0691C90.1152 19.545 89.8089 19.0753 89.3256 18.803C86.7321 17.3327 82.961 18.6397 80.2246 20.4776C77.4269 22.2882 75.6503 24.6367 75.623 24.6026C84.1318 24.2282 87.9438 23.8266 89.523 22.1112L89.5162 22.1044Z" fill="#686868"/>
<path d="M93.879 51.4494C97.9905 58.0794 100.312 61.3945 102.476 61.9526C103.177 62.1977 103.885 62.0956 104.403 61.7484C103.879 61.2515 103.422 60.741 102.98 60.2237C102.476 59.6451 102.102 59.0188 101.653 58.4402C101.21 57.8616 100.754 57.2966 100.291 56.7589C99.8352 56.2143 99.3655 55.6902 98.8958 55.1796C98.9162 55.166 98.9367 55.1524 98.9571 55.1456C99.5289 55.6017 100.067 56.085 100.611 56.5887C101.142 57.0992 101.666 57.6234 102.177 58.1747C102.687 58.7261 103.239 59.2639 103.647 59.8969C104.001 60.4415 104.321 61.0133 104.559 61.6259C104.92 61.3196 105.145 60.8703 105.145 60.3666C105.09 54.3015 93.8246 51.1567 93.8722 51.4494H93.879Z" fill="#686868"/>
<path d="M81.8788 28.2782C89.843 29.6192 93.655 30.048 95.5269 28.7206C96.1395 28.3463 96.5207 27.7608 96.6296 27.155C95.9489 27.2231 95.2886 27.2299 94.642 27.2231C93.8864 27.2231 93.1717 27.087 92.4433 27.0393C91.7149 26.9848 90.9934 26.9576 90.2787 26.9508C89.5639 26.9304 88.856 26.944 88.1549 26.9508C88.1549 26.9236 88.1617 26.9032 88.1685 26.8759C88.89 26.7398 89.6184 26.6513 90.3604 26.5696C91.0955 26.5015 91.8375 26.4539 92.5863 26.4267C93.335 26.4062 94.1042 26.3382 94.8394 26.4539C95.452 26.5424 96.0646 26.6785 96.6569 26.9032C96.6841 26.3858 96.5071 25.8753 96.1123 25.5213C91.5584 21.3895 81.5997 28.1148 81.8788 28.285V28.2782Z" fill="#686868"/>
<path d="M86.8342 33.0638C94.0905 35.9976 97.7459 37.2433 99.8288 36.3516C100.51 36.1201 101.013 35.63 101.245 35.0514C100.564 34.9698 99.9173 34.8404 99.2911 34.6907C98.5559 34.5273 97.9024 34.2482 97.2081 34.0508C96.5206 33.8466 95.8331 33.6696 95.1456 33.513C94.4649 33.3429 93.7842 33.2067 93.1103 33.0706C93.1239 33.0502 93.1307 33.0229 93.1443 33.0025C93.8659 33.0229 94.5874 33.0842 95.309 33.1659C96.0305 33.2544 96.7521 33.3633 97.4804 33.4926C98.202 33.6288 98.9643 33.7309 99.645 33.9963C100.224 34.2142 100.789 34.4728 101.313 34.82C101.442 34.3299 101.381 33.8057 101.081 33.3837C97.5961 28.4418 86.6096 32.846 86.8274 33.057L86.8342 33.0638Z" fill="#686868"/>
<path d="M90.49 38.6863C96.8682 43.0496 100.224 45.0713 102.423 44.6561C103.144 44.5744 103.736 44.2 104.077 43.6827C103.417 43.458 102.817 43.1858 102.225 42.9067C101.545 42.5935 100.959 42.1783 100.333 41.838C99.7067 41.4908 99.0736 41.1709 98.4406 40.8714C97.8143 40.565 97.1813 40.286 96.555 40.0137C96.5686 39.9933 96.5823 39.9728 96.6027 39.9524C97.297 40.1294 97.9845 40.3404 98.672 40.5719C99.3527 40.8101 100.033 41.0756 100.714 41.3547C101.388 41.6406 102.11 41.8992 102.722 42.3077C103.246 42.648 103.75 43.0292 104.193 43.4785C104.417 43.036 104.458 42.5187 104.254 42.049C101.871 36.5081 90.3198 38.4276 90.4832 38.6795L90.49 38.6863Z" fill="#686868"/>
<path d="M92.8307 44.9014C98.1606 50.5104 101.067 53.2264 103.3 53.3013C104.028 53.383 104.689 53.1379 105.124 52.6955C104.518 52.3279 103.974 51.9331 103.45 51.5315C102.844 51.0754 102.354 50.5444 101.809 50.0748C101.265 49.6051 100.713 49.1558 100.148 48.727C99.5969 48.2913 99.0319 47.8829 98.4737 47.4813C98.4942 47.4677 98.5078 47.4472 98.5282 47.4336C99.1749 47.7536 99.8011 48.1143 100.427 48.4819C101.047 48.8631 101.659 49.2647 102.272 49.6868C102.878 50.1156 103.525 50.524 104.049 51.0482C104.498 51.4974 104.92 51.9807 105.267 52.5253C105.567 52.1441 105.703 51.654 105.601 51.1571C104.362 45.2418 92.7218 44.6155 92.8239 44.8946L92.8307 44.9014Z" fill="#686868"/>
<path d="M82.2867 15.7537C82.5249 15.4814 82.5385 15.1138 82.3751 14.7599C81.9735 14.8688 81.5515 14.9437 81.1295 15.0049C80.6325 15.0798 80.1016 15.073 79.5843 15.1138C79.0669 15.1547 78.5564 15.2023 78.0459 15.2568C77.5285 15.3044 77.0248 15.3725 76.5075 15.4338C76.5007 15.4202 76.4939 15.4065 76.4871 15.3929C76.9636 15.2636 77.4537 15.1479 77.9438 15.039C78.4339 14.9369 78.9308 14.8416 79.4345 14.7599C79.9382 14.6782 80.4215 14.5625 80.9525 14.5557C81.3881 14.5421 81.8306 14.5557 82.2867 14.6101C82.1029 14.3174 81.7966 14.052 81.4017 13.8954C77.0929 12.1732 71.9264 16.5501 72.0693 16.5842C79.3188 16.9041 81.5107 16.7067 82.2799 15.7537H82.2867Z" fill="#686868"/>
<path d="M78.815 13.4731C79.3119 13.6705 79.7952 13.7046 80.156 13.5956C79.7816 13.2553 79.448 12.9081 79.1145 12.561C78.7265 12.1457 78.4202 11.7169 78.0662 11.2949C77.7122 10.8728 77.3446 10.4576 76.9635 10.0424C76.5891 9.62715 76.1943 9.21192 75.8063 8.79669L75.8607 8.78308C76.3372 9.17788 76.7865 9.57269 77.2289 9.97431C77.6646 10.3759 78.0798 10.7843 78.4814 11.1996C78.883 11.6148 79.3119 12.0232 79.625 12.4521C79.8837 12.806 80.1219 13.1668 80.3057 13.5412C80.5848 13.4119 80.7618 13.194 80.7618 12.8877C81.0953 9.53185 71.6267 5.01879 71.3477 5.24342C75.2685 10.9817 77.2017 12.8605 78.8218 13.4731H78.815Z" fill="#686868"/>
<path d="M71.4165 97.111C71.0898 97.111 70.7971 96.8864 70.7222 96.5597C70.6337 96.1785 70.8788 95.7973 71.26 95.7088C93.8184 90.6376 103.369 72.7759 104.778 57.7528C106.588 38.4821 96.7319 21.2535 79.6734 13.8747C79.3127 13.7181 79.1493 13.3029 79.3059 12.9421C79.4624 12.5813 79.8777 12.418 80.2384 12.5745C97.8754 20.2052 108.066 37.992 106.194 57.8889C104.737 73.409 94.8735 91.856 71.5731 97.0974C71.5186 97.111 71.471 97.1179 71.4165 97.1179V97.111Z" fill="#686868"/>
<path d="M62.2673 21.9616L69.5849 23.0235L64.2958 28.1832L65.5483 35.4735L58.9999 32.036L52.4584 35.4735L53.7041 28.19L48.4082 23.0303L55.7258 21.9616L58.9931 15.3315L62.2673 21.9616Z" fill="#686868"/>
<path d="M46.6182 34.4453H35.1279" stroke="#686868" stroke-width="0.680703" stroke-linecap="round" stroke-linejoin="round"/>
<path d="M71.3818 34.4453H82.8721" stroke="#686868" stroke-width="0.680703" stroke-linecap="round" stroke-linejoin="round"/>
</g>
<defs>
<clipPath id="clip0_512_1110">
<rect width="116.727" height="107.66" fill="white" transform="translate(0.636719 0.00195312)"/>
</clipPath>
</defs>
</svg>
