<svg width="217" height="73" viewBox="0 0 217 73" fill="none" xmlns="http://www.w3.org/2000/svg">
<path d="M98.4816 18.8299C98.5619 18.8299 98.6262 18.8621 98.6744 18.9264C98.7387 18.9746 98.7709 19.0389 98.7709 19.1192V20.9515C98.7709 21.0319 98.7387 21.1042 98.6744 21.1685C98.6262 21.2167 98.5619 21.2408 98.4816 21.2408H95.4198C95.3394 21.2408 95.2992 21.281 95.2992 21.3613V35.4167C95.2992 35.4971 95.2671 35.5694 95.2028 35.6337C95.1546 35.6819 95.0903 35.7061 95.0099 35.7061H92.7919C92.7115 35.7061 92.6392 35.6819 92.5749 35.6337C92.5267 35.5694 92.5026 35.4971 92.5026 35.4167V21.3613C92.5026 21.281 92.4624 21.2408 92.3821 21.2408H89.489C89.4086 21.2408 89.3363 21.2167 89.272 21.1685C89.2238 21.1042 89.1997 21.0319 89.1997 20.9515V19.1192C89.1997 19.0389 89.2238 18.9746 89.272 18.9264C89.3363 18.8621 89.4086 18.8299 89.489 18.8299H98.4816ZM106.827 19.1192C106.827 19.0389 106.851 18.9746 106.899 18.9264C106.963 18.8621 107.036 18.8299 107.116 18.8299H109.334C109.414 18.8299 109.479 18.8621 109.527 18.9264C109.591 18.9746 109.623 19.0389 109.623 19.1192V35.4167C109.623 35.4971 109.591 35.5694 109.527 35.6337C109.479 35.6819 109.414 35.7061 109.334 35.7061H107.116C107.036 35.7061 106.963 35.6819 106.899 35.6337C106.851 35.5694 106.827 35.4971 106.827 35.4167V28.594C106.827 28.5136 106.787 28.4734 106.706 28.4734H103.644C103.564 28.4734 103.524 28.5136 103.524 28.594V35.4167C103.524 35.4971 103.492 35.5694 103.427 35.6337C103.379 35.6819 103.315 35.7061 103.235 35.7061H101.017C100.936 35.7061 100.864 35.6819 100.8 35.6337C100.751 35.5694 100.727 35.4971 100.727 35.4167V19.1192C100.727 19.0389 100.751 18.9746 100.8 18.9264C100.864 18.8621 100.936 18.8299 101.017 18.8299H103.235C103.315 18.8299 103.379 18.8621 103.427 18.9264C103.492 18.9746 103.524 19.0389 103.524 19.1192V25.9179C103.524 25.9983 103.564 26.0384 103.644 26.0384H106.706C106.787 26.0384 106.827 25.9983 106.827 25.9179V19.1192ZM116.532 35.8989C115.15 35.8989 114.033 35.481 113.181 34.6453C112.345 33.8095 111.927 32.7005 111.927 31.3183V23.2177C111.927 21.8355 112.345 20.7265 113.181 19.8907C114.033 19.0549 115.15 18.6371 116.532 18.6371C117.914 18.6371 119.031 19.0549 119.883 19.8907C120.735 20.7265 121.161 21.8355 121.161 23.2177V31.3183C121.161 32.7005 120.735 33.8095 119.883 34.6453C119.031 35.481 117.914 35.8989 116.532 35.8989ZM116.532 33.488C117.079 33.488 117.521 33.3032 117.858 32.9335C118.196 32.5478 118.364 32.0496 118.364 31.4388V23.0972C118.364 22.4864 118.196 21.9962 117.858 21.6265C117.521 21.2408 117.079 21.0479 116.532 21.0479C115.986 21.0479 115.544 21.2408 115.206 21.6265C114.885 21.9962 114.724 22.4864 114.724 23.0972V31.4388C114.724 32.0496 114.885 32.5478 115.206 32.9335C115.544 33.3032 115.986 33.488 116.532 33.488ZM131.041 19.0228C131.121 18.8942 131.242 18.8299 131.402 18.8299H133.62C133.701 18.8299 133.765 18.8621 133.813 18.9264C133.877 18.9746 133.91 19.0389 133.91 19.1192V35.4167C133.91 35.4971 133.877 35.5694 133.813 35.6337C133.765 35.6819 133.701 35.7061 133.62 35.7061H131.402C131.322 35.7061 131.25 35.6819 131.185 35.6337C131.137 35.5694 131.113 35.4971 131.113 35.4167V24.0374C131.113 23.9731 131.097 23.941 131.065 23.941C131.033 23.941 131 23.9651 130.968 24.0133L128.871 27.8225C128.79 27.9511 128.718 28.0154 128.654 28.0154C128.59 28.0154 128.517 27.9511 128.437 27.8225L126.339 24.0133C126.307 23.9651 126.275 23.941 126.243 23.941C126.211 23.941 126.195 23.9731 126.195 24.0374V35.4167C126.195 35.4971 126.163 35.5694 126.098 35.6337C126.05 35.6819 125.986 35.7061 125.905 35.7061H123.687C123.607 35.7061 123.535 35.6819 123.47 35.6337C123.422 35.5694 123.398 35.4971 123.398 35.4167V19.1192C123.398 19.0389 123.422 18.9746 123.47 18.9264C123.535 18.8621 123.607 18.8299 123.687 18.8299H125.905C126.066 18.8299 126.187 18.8942 126.267 19.0228L128.606 23.1454C128.654 23.2097 128.702 23.2097 128.75 23.1454L131.041 19.0228ZM143.29 35.7061C143.097 35.7061 142.993 35.6177 142.977 35.4409L142.518 32.9094C142.518 32.8291 142.47 32.7889 142.374 32.7889H138.854C138.757 32.7889 138.709 32.8291 138.709 32.9094L138.251 35.4409C138.235 35.6177 138.131 35.7061 137.938 35.7061H135.744C135.519 35.7061 135.43 35.6016 135.479 35.3926L139.047 19.0951C139.079 18.9183 139.183 18.8299 139.36 18.8299H141.916C142.093 18.8299 142.197 18.9183 142.229 19.0951L145.797 35.3926V35.4891C145.797 35.6337 145.709 35.7061 145.532 35.7061H143.29ZM139.143 30.4745C139.127 30.5548 139.167 30.595 139.264 30.595H141.94C142.036 30.595 142.076 30.5548 142.06 30.4745L140.662 22.8561C140.646 22.8079 140.622 22.7838 140.59 22.7838C140.558 22.7838 140.534 22.8079 140.517 22.8561L139.143 30.4745ZM150.851 35.8989C149.517 35.8989 148.44 35.4971 147.62 34.6935C146.801 33.8899 146.391 32.8371 146.391 31.5352V30.9084C146.391 30.8281 146.415 30.7638 146.463 30.7155C146.527 30.6513 146.6 30.6191 146.68 30.6191H148.874C148.954 30.6191 149.019 30.6513 149.067 30.7155C149.131 30.7638 149.163 30.8281 149.163 30.9084V31.3906C149.163 32.0174 149.316 32.5237 149.621 32.9094C149.943 33.2952 150.353 33.488 150.851 33.488C151.349 33.488 151.759 33.3113 152.08 32.9577C152.402 32.588 152.563 32.1058 152.563 31.5111C152.563 31.0932 152.474 30.7316 152.297 30.4262C152.121 30.1209 151.871 29.8316 151.55 29.5583C151.229 29.2851 150.714 28.8913 150.007 28.377C149.203 27.7984 148.552 27.2841 148.054 26.834C147.572 26.384 147.162 25.8456 146.825 25.2187C146.503 24.5758 146.343 23.8365 146.343 23.0007C146.343 21.6667 146.744 20.6059 147.548 19.8184C148.352 19.0308 149.412 18.6371 150.73 18.6371C152.064 18.6371 153.141 19.0549 153.961 19.8907C154.781 20.7104 155.19 21.8033 155.19 23.1695V23.7481C155.19 23.8285 155.158 23.9008 155.094 23.9651C155.046 24.0133 154.981 24.0374 154.901 24.0374H152.731C152.651 24.0374 152.579 24.0133 152.514 23.9651C152.466 23.9008 152.442 23.8285 152.442 23.7481V23.1213C152.442 22.4945 152.281 21.9962 151.96 21.6265C151.654 21.2408 151.245 21.0479 150.73 21.0479C150.248 21.0479 149.854 21.2247 149.549 21.5783C149.244 21.9158 149.091 22.39 149.091 23.0007C149.091 23.5794 149.252 24.0696 149.573 24.4714C149.911 24.8732 150.562 25.4277 151.526 26.1349C152.506 26.8581 153.246 27.4528 153.744 27.9189C154.242 28.369 154.628 28.8672 154.901 29.4137C155.174 29.9601 155.311 30.6111 155.311 31.3665C155.311 32.7326 154.901 33.8336 154.081 34.6694C153.262 35.4891 152.185 35.8989 150.851 35.8989ZM165.721 35.8989C164.387 35.8989 163.31 35.5051 162.49 34.7176C161.671 33.914 161.261 32.8532 161.261 31.5352V29.7512C161.261 29.6708 161.285 29.6065 161.333 29.5583C161.397 29.494 161.47 29.4619 161.55 29.4619H163.768C163.848 29.4619 163.913 29.494 163.961 29.5583C164.025 29.6065 164.057 29.6708 164.057 29.7512V31.5835C164.057 32.146 164.21 32.6041 164.515 32.9577C164.821 33.3113 165.223 33.488 165.721 33.488C166.219 33.488 166.621 33.3113 166.926 32.9577C167.248 32.6041 167.408 32.146 167.408 31.5835V19.1192C167.408 19.0389 167.433 18.9746 167.481 18.9264C167.545 18.8621 167.617 18.8299 167.698 18.8299H169.916C169.996 18.8299 170.06 18.8621 170.109 18.9264C170.173 18.9746 170.205 19.0389 170.205 19.1192V31.5352C170.205 32.8532 169.787 33.914 168.951 34.7176C168.132 35.5051 167.055 35.8989 165.721 35.8989ZM177.063 35.8989C175.681 35.8989 174.564 35.481 173.712 34.6453C172.876 33.8095 172.458 32.7005 172.458 31.3183V23.2177C172.458 21.8355 172.876 20.7265 173.712 19.8907C174.564 19.0549 175.681 18.6371 177.063 18.6371C178.445 18.6371 179.562 19.0549 180.414 19.8907C181.266 20.7265 181.692 21.8355 181.692 23.2177V31.3183C181.692 32.7005 181.266 33.8095 180.414 34.6453C179.562 35.481 178.445 35.8989 177.063 35.8989ZM177.063 33.488C177.609 33.488 178.051 33.3032 178.389 32.9335C178.726 32.5478 178.895 32.0496 178.895 31.4388V23.0972C178.895 22.4864 178.726 21.9962 178.389 21.6265C178.051 21.2408 177.609 21.0479 177.063 21.0479C176.516 21.0479 176.074 21.2408 175.737 21.6265C175.415 21.9962 175.255 22.4864 175.255 23.0972V31.4388C175.255 32.0496 175.415 32.5478 175.737 32.9335C176.074 33.3032 176.516 33.488 177.063 33.488ZM190.848 19.1192C190.848 19.0389 190.872 18.9746 190.921 18.9264C190.985 18.8621 191.057 18.8299 191.138 18.8299H193.331C193.412 18.8299 193.476 18.8621 193.524 18.9264C193.589 18.9746 193.621 19.0389 193.621 19.1192V35.4167C193.621 35.4971 193.589 35.5694 193.524 35.6337C193.476 35.6819 193.412 35.7061 193.331 35.7061H190.8C190.639 35.7061 190.535 35.6257 190.487 35.465L186.894 25.2429C186.878 25.1946 186.846 25.1786 186.798 25.1946C186.766 25.1946 186.75 25.2187 186.75 25.267L186.774 35.4167C186.774 35.4971 186.742 35.5694 186.677 35.6337C186.629 35.6819 186.565 35.7061 186.485 35.7061H184.291C184.21 35.7061 184.138 35.6819 184.074 35.6337C184.025 35.5694 184.001 35.4971 184.001 35.4167V19.1192C184.001 19.0389 184.025 18.9746 184.074 18.9264C184.138 18.8621 184.21 18.8299 184.291 18.8299H186.774C186.935 18.8299 187.039 18.9103 187.087 19.071L190.704 29.2208C190.72 29.269 190.744 29.2931 190.776 29.2931C190.824 29.2771 190.848 29.2449 190.848 29.1967V19.1192ZM204.634 20.9515C204.634 21.0319 204.602 21.1042 204.538 21.1685C204.49 21.2167 204.426 21.2408 204.345 21.2408H199.138C199.057 21.2408 199.017 21.281 199.017 21.3613V25.9179C199.017 25.9983 199.057 26.0384 199.138 26.0384H202.224C202.304 26.0384 202.368 26.0706 202.416 26.1349C202.481 26.1831 202.513 26.2474 202.513 26.3278V28.1841C202.513 28.2645 202.481 28.3368 202.416 28.4011C202.368 28.4493 202.304 28.4734 202.224 28.4734H199.138C199.057 28.4734 199.017 28.5136 199.017 28.594V33.1746C199.017 33.255 199.057 33.2952 199.138 33.2952H204.345C204.426 33.2952 204.49 33.3273 204.538 33.3916C204.602 33.4398 204.634 33.5041 204.634 33.5845V35.4167C204.634 35.4971 204.602 35.5694 204.538 35.6337C204.49 35.6819 204.426 35.7061 204.345 35.7061H196.51C196.429 35.7061 196.357 35.6819 196.293 35.6337C196.245 35.5694 196.221 35.4971 196.221 35.4167V19.1192C196.221 19.0389 196.245 18.9746 196.293 18.9264C196.357 18.8621 196.429 18.8299 196.51 18.8299H204.345C204.426 18.8299 204.49 18.8621 204.538 18.9264C204.602 18.9746 204.634 19.0389 204.634 19.1192V20.9515ZM210.675 35.8989C209.341 35.8989 208.265 35.4971 207.445 34.6935C206.625 33.8899 206.215 32.8371 206.215 31.5352V30.9084C206.215 30.8281 206.239 30.7638 206.288 30.7155C206.352 30.6513 206.424 30.6191 206.505 30.6191H208.698C208.779 30.6191 208.843 30.6513 208.891 30.7155C208.956 30.7638 208.988 30.8281 208.988 30.9084V31.3906C208.988 32.0174 209.14 32.5237 209.446 32.9094C209.767 33.2952 210.177 33.488 210.675 33.488C211.174 33.488 211.584 33.3113 211.905 32.9577C212.226 32.588 212.387 32.1058 212.387 31.5111C212.387 31.0932 212.299 30.7316 212.122 30.4262C211.945 30.1209 211.696 29.8316 211.375 29.5583C211.053 29.2851 210.539 28.8913 209.832 28.377C209.028 27.7984 208.377 27.2841 207.879 26.834C207.397 26.384 206.987 25.8456 206.649 25.2187C206.328 24.5758 206.167 23.8365 206.167 23.0007C206.167 21.6667 206.569 20.6059 207.373 19.8184C208.176 19.0308 209.237 18.6371 210.555 18.6371C211.889 18.6371 212.966 19.0549 213.785 19.8907C214.605 20.7104 215.015 21.8033 215.015 23.1695V23.7481C215.015 23.8285 214.983 23.9008 214.919 23.9651C214.87 24.0133 214.806 24.0374 214.726 24.0374H212.556C212.476 24.0374 212.403 24.0133 212.339 23.9651C212.291 23.9008 212.267 23.8285 212.267 23.7481V23.1213C212.267 22.4945 212.106 21.9962 211.784 21.6265C211.479 21.2408 211.069 21.0479 210.555 21.0479C210.073 21.0479 209.679 21.2247 209.374 21.5783C209.068 21.9158 208.915 22.39 208.915 23.0007C208.915 23.5794 209.076 24.0696 209.398 24.4714C209.735 24.8732 210.386 25.4277 211.35 26.1349C212.331 26.8581 213.07 27.4528 213.568 27.9189C214.067 28.369 214.452 28.8672 214.726 29.4137C214.999 29.9601 215.136 30.6111 215.136 31.3665C215.136 32.7326 214.726 33.8336 213.906 34.6694C213.086 35.4891 212.009 35.8989 210.675 35.8989Z" fill="white"/>
<path d="M92.5428 46.532C93.3678 46.532 94.0322 46.832 94.5358 47.4321C95.0501 48.0214 95.3073 48.7982 95.3073 49.7626C95.3073 50.7055 95.0608 51.4663 94.5679 52.0449C94.075 52.6235 93.4268 52.9128 92.6231 52.9128H91.1123C91.0695 52.9128 91.048 52.9342 91.048 52.9771V57.6381C91.048 57.7453 90.9945 57.7988 90.8873 57.7988H89.6658C89.5587 57.7988 89.5051 57.7453 89.5051 57.6381V46.6927C89.5051 46.5856 89.5587 46.532 89.6658 46.532H92.5428ZM92.3017 51.6752C92.741 51.6752 93.0946 51.5091 93.3625 51.177C93.6304 50.8341 93.7643 50.3733 93.7643 49.7947C93.7643 49.2054 93.6304 48.7393 93.3625 48.3964C93.0946 48.0428 92.741 47.866 92.3017 47.866H91.1123C91.0695 47.866 91.048 47.8875 91.048 47.9303V51.6109C91.048 51.6538 91.0695 51.6752 91.1123 51.6752H92.3017ZM100.871 46.7088C100.871 46.6017 100.925 46.5481 101.032 46.5481H102.253C102.36 46.5481 102.414 46.6017 102.414 46.7088V57.6381C102.414 57.7453 102.36 57.7988 102.253 57.7988H101.032C100.925 57.7988 100.871 57.7453 100.871 57.6381V52.8967C100.871 52.8539 100.85 52.8324 100.807 52.8324H98.3799C98.337 52.8324 98.3156 52.8539 98.3156 52.8967V57.6381C98.3156 57.7453 98.262 57.7988 98.1548 57.7988H96.9333C96.8262 57.7988 96.7726 57.7453 96.7726 57.6381V46.7088C96.7726 46.6017 96.8262 46.5481 96.9333 46.5481H98.1548C98.262 46.5481 98.3156 46.6017 98.3156 46.7088V51.4341C98.3156 51.477 98.337 51.4984 98.3799 51.4984H100.807C100.85 51.4984 100.871 51.477 100.871 51.4341V46.7088ZM107.101 57.9274C106.222 57.9274 105.515 57.6595 104.979 57.1238C104.444 56.588 104.176 55.8755 104.176 54.9861V49.3768C104.176 48.4875 104.444 47.7749 104.979 47.2392C105.515 46.6927 106.222 46.4195 107.101 46.4195C107.99 46.4195 108.703 46.6927 109.239 47.2392C109.785 47.7749 110.058 48.4875 110.058 49.3768V54.9861C110.058 55.8755 109.785 56.588 109.239 57.1238C108.703 57.6595 107.99 57.9274 107.101 57.9274ZM107.101 56.5934C107.53 56.5934 107.872 56.4541 108.13 56.1755C108.387 55.8862 108.515 55.5112 108.515 55.0504V49.2965C108.515 48.8357 108.387 48.4661 108.13 48.1875C107.872 47.8982 107.53 47.7535 107.101 47.7535C106.683 47.7535 106.346 47.8982 106.088 48.1875C105.842 48.4661 105.719 48.8357 105.719 49.2965V55.0504C105.719 55.5112 105.842 55.8862 106.088 56.1755C106.346 56.4541 106.683 56.5934 107.101 56.5934ZM117.241 46.5481C117.348 46.5481 117.402 46.6017 117.402 46.7088V47.7214C117.402 47.8285 117.348 47.8821 117.241 47.8821H115.136C115.093 47.8821 115.072 47.9035 115.072 47.9464V57.6381C115.072 57.7453 115.018 57.7988 114.911 57.7988H113.689C113.582 57.7988 113.529 57.7453 113.529 57.6381V47.9464C113.529 47.9035 113.507 47.8821 113.464 47.8821H111.471C111.364 47.8821 111.311 47.8285 111.311 47.7214V46.7088C111.311 46.6017 111.364 46.5481 111.471 46.5481H117.241ZM121.149 57.9274C120.27 57.9274 119.563 57.6595 119.027 57.1238C118.491 56.588 118.223 55.8755 118.223 54.9861V49.3768C118.223 48.4875 118.491 47.7749 119.027 47.2392C119.563 46.6927 120.27 46.4195 121.149 46.4195C122.038 46.4195 122.751 46.6927 123.286 47.2392C123.833 47.7749 124.106 48.4875 124.106 49.3768V54.9861C124.106 55.8755 123.833 56.588 123.286 57.1238C122.751 57.6595 122.038 57.9274 121.149 57.9274ZM121.149 56.5934C121.577 56.5934 121.92 56.4541 122.177 56.1755C122.434 55.8862 122.563 55.5112 122.563 55.0504V49.2965C122.563 48.8357 122.434 48.4661 122.177 48.1875C121.92 47.8982 121.577 47.7535 121.149 47.7535C120.731 47.7535 120.393 47.8982 120.136 48.1875C119.89 48.4661 119.766 48.8357 119.766 49.2965V55.0504C119.766 55.5112 119.89 55.8862 120.136 56.1755C120.393 56.4541 120.731 56.5934 121.149 56.5934ZM128.541 57.9274C127.673 57.9274 126.971 57.6702 126.435 57.1559C125.91 56.6416 125.648 55.9612 125.648 55.1147V49.2322C125.648 48.3857 125.91 47.7053 126.435 47.191C126.971 46.6767 127.673 46.4195 128.541 46.4195C129.409 46.4195 130.11 46.6767 130.646 47.191C131.182 47.7053 131.45 48.3911 131.45 49.2483V49.9233C131.45 50.0305 131.396 50.084 131.289 50.084H130.068C129.96 50.084 129.907 50.0305 129.907 49.9233V49.2161C129.907 48.7768 129.778 48.4232 129.521 48.1553C129.275 47.8875 128.948 47.7535 128.541 47.7535C128.133 47.7535 127.801 47.8875 127.544 48.1553C127.298 48.4232 127.175 48.7768 127.175 49.2161V55.1308C127.175 55.5701 127.298 55.9237 127.544 56.1916C127.801 56.4595 128.133 56.5934 128.541 56.5934C128.948 56.5934 129.275 56.4595 129.521 56.1916C129.778 55.9237 129.907 55.5701 129.907 55.1308V53.3628C129.907 53.32 129.885 53.2985 129.843 53.2985H128.621C128.514 53.2985 128.46 53.245 128.46 53.1378V52.1413C128.46 52.0342 128.514 51.9806 128.621 51.9806H131.289C131.396 51.9806 131.45 52.0342 131.45 52.1413V55.1147C131.45 55.9612 131.182 56.6416 130.646 57.1559C130.11 57.6702 129.409 57.9274 128.541 57.9274ZM137.686 57.7988C137.59 57.7988 137.526 57.756 137.494 57.6702L136.015 52.8806C136.004 52.8485 135.983 52.8324 135.951 52.8324H134.826C134.783 52.8324 134.761 52.8539 134.761 52.8967V57.6381C134.761 57.7453 134.708 57.7988 134.6 57.7988H133.379C133.272 57.7988 133.218 57.7453 133.218 57.6381V46.7088C133.218 46.6017 133.272 46.5481 133.379 46.5481H136.256C136.802 46.5481 137.285 46.682 137.702 46.9499C138.12 47.2178 138.442 47.5981 138.667 48.091C138.903 48.5732 139.02 49.125 139.02 49.7465C139.02 50.4216 138.881 51.0109 138.603 51.5145C138.324 52.0074 137.944 52.3663 137.461 52.5913C137.429 52.6235 137.419 52.6556 137.429 52.6878L139.069 57.622L139.085 57.6863C139.085 57.7613 139.037 57.7988 138.94 57.7988H137.686ZM134.826 47.8821C134.783 47.8821 134.761 47.9035 134.761 47.9464V51.5466C134.761 51.5895 134.783 51.6109 134.826 51.6109H136.015C136.454 51.6109 136.808 51.4448 137.076 51.1127C137.344 50.7698 137.477 50.3198 137.477 49.7626C137.477 49.184 137.344 48.7286 137.076 48.3964C136.808 48.0535 136.454 47.8821 136.015 47.8821H134.826ZM145.062 57.7988C144.966 57.7988 144.907 57.7506 144.885 57.6542L144.532 55.8058C144.532 55.7844 144.521 55.7683 144.499 55.7576C144.489 55.7469 144.473 55.7415 144.451 55.7415H141.831C141.81 55.7415 141.789 55.7469 141.767 55.7576C141.756 55.7683 141.751 55.7844 141.751 55.8058L141.413 57.6542C141.403 57.7506 141.344 57.7988 141.237 57.7988H140.015C139.962 57.7988 139.919 57.7828 139.887 57.7506C139.865 57.7185 139.86 57.6756 139.871 57.622L142.265 46.6927C142.287 46.5963 142.346 46.5481 142.442 46.5481H143.873C143.98 46.5481 144.039 46.5963 144.049 46.6927L146.46 57.622V57.6542C146.46 57.7506 146.412 57.7988 146.316 57.7988H145.062ZM142.024 54.4557C142.024 54.4986 142.04 54.52 142.072 54.52H144.21C144.242 54.52 144.258 54.4986 144.258 54.4557L143.165 48.75C143.155 48.7286 143.144 48.7179 143.133 48.7179C143.123 48.7179 143.112 48.7286 143.101 48.75L142.024 54.4557ZM150.68 46.532C151.505 46.532 152.169 46.832 152.673 47.4321C153.187 48.0214 153.444 48.7982 153.444 49.7626C153.444 50.7055 153.198 51.4663 152.705 52.0449C152.212 52.6235 151.564 52.9128 150.76 52.9128H149.25C149.207 52.9128 149.185 52.9342 149.185 52.9771V57.6381C149.185 57.7453 149.132 57.7988 149.025 57.7988H147.803C147.696 57.7988 147.642 57.7453 147.642 57.6381V46.6927C147.642 46.5856 147.696 46.532 147.803 46.532H150.68ZM150.439 51.6752C150.878 51.6752 151.232 51.5091 151.5 51.177C151.768 50.8341 151.902 50.3733 151.902 49.7947C151.902 49.2054 151.768 48.7393 151.5 48.3964C151.232 48.0428 150.878 47.866 150.439 47.866H149.25C149.207 47.866 149.185 47.8875 149.185 47.9303V51.6109C149.185 51.6538 149.207 51.6752 149.25 51.6752H150.439ZM159.008 46.7088C159.008 46.6017 159.062 46.5481 159.169 46.5481H160.391C160.498 46.5481 160.551 46.6017 160.551 46.7088V57.6381C160.551 57.7453 160.498 57.7988 160.391 57.7988H159.169C159.062 57.7988 159.008 57.7453 159.008 57.6381V52.8967C159.008 52.8539 158.987 52.8324 158.944 52.8324H156.517C156.474 52.8324 156.453 52.8539 156.453 52.8967V57.6381C156.453 57.7453 156.399 57.7988 156.292 57.7988H155.071C154.963 57.7988 154.91 57.7453 154.91 57.6381V46.7088C154.91 46.6017 154.963 46.5481 155.071 46.5481H156.292C156.399 46.5481 156.453 46.6017 156.453 46.7088V51.4341C156.453 51.477 156.474 51.4984 156.517 51.4984H158.944C158.987 51.4984 159.008 51.477 159.008 51.4341V46.7088ZM164.483 57.7828C164.376 57.7828 164.322 57.7292 164.322 57.622V53.0253L164.306 52.9449L162.072 46.7249L162.056 46.6606C162.056 46.5856 162.104 46.5481 162.2 46.5481H163.486C163.583 46.5481 163.647 46.5909 163.679 46.6767L165.045 51.1127C165.056 51.1341 165.072 51.1448 165.094 51.1448C165.115 51.1448 165.131 51.1341 165.142 51.1127L166.508 46.6767C166.54 46.5909 166.604 46.5481 166.701 46.5481H167.987C168.104 46.5481 168.147 46.607 168.115 46.7249L165.881 52.9449L165.865 53.0253V57.622C165.865 57.7292 165.811 57.7828 165.704 57.7828H164.483Z" fill="#737373"/>
<rect width="72.4297" height="72.2229" rx="5.3575" fill="#F26B2B"/>
<path d="M14.7561 21.4529V14.9095C14.7561 14.0755 15.4341 13.3994 16.2705 13.3994H22.8327" stroke="white" stroke-width="3.68688"/>
<path d="M14.7561 50.5685V57.112C14.7561 57.946 15.4341 58.6221 16.2705 58.6221H22.8327" stroke="white" stroke-width="3.68688"/>
<path d="M57.6782 21.4529V14.9095C57.6782 14.0755 57.0002 13.3994 56.1639 13.3994H49.6016" stroke="white" stroke-width="3.68688"/>
<path d="M57.6782 50.5685V57.112C57.6782 57.946 57.0002 58.6221 56.1639 58.6221H49.6016" stroke="white" stroke-width="3.68688"/>
<path d="M42.2188 36.1257C42.2188 39.4234 39.5364 42.1057 36.2164 42.1057C32.8964 42.1057 30.214 39.4234 30.214 36.1257C30.214 32.828 32.8964 30.1457 36.2164 30.1457C39.5364 30.1457 42.2188 32.828 42.2188 36.1257Z" stroke="white" stroke-width="3.68688"/>
</svg>