<svg width="255" height="254" viewBox="0 0 255 254" fill="none" xmlns="http://www.w3.org/2000/svg">
<circle cx="127.583" cy="127.017" r="106.962" stroke="#816C88" stroke-width="40"/>
<path d="M240.053 132.186C239.977 132.822 239.754 133.361 239.385 133.803C239.014 134.257 238.532 134.582 237.937 134.778C237.34 134.986 236.682 135.047 235.963 134.96C234.884 134.831 234.05 134.439 233.459 133.784C232.868 133.142 232.628 132.353 232.74 131.418L232.924 129.89C232.931 129.83 232.905 129.796 232.845 129.789L227.846 129.189C227.786 129.182 227.735 129.151 227.693 129.098C227.661 129.057 227.649 129.007 227.656 128.947L227.855 127.293C227.862 127.233 227.886 127.181 227.928 127.138C227.98 127.107 228.036 127.096 228.096 127.103L240.269 128.564C240.329 128.572 240.375 128.595 240.407 128.636C240.449 128.689 240.466 128.746 240.459 128.806L240.053 132.186ZM234.43 131.165C234.377 131.608 234.503 131.982 234.807 132.286C235.121 132.604 235.572 132.798 236.159 132.868C236.759 132.94 237.249 132.859 237.63 132.625C238.021 132.405 238.243 132.073 238.296 131.629L238.426 130.55C238.433 130.49 238.407 130.457 238.347 130.449L234.661 130.007C234.601 130 234.567 130.026 234.56 130.086L234.43 131.165Z" fill="white"/>
<path d="M234.947 160.061C235.003 160.082 235.042 160.117 235.062 160.163C235.09 160.226 235.093 160.285 235.072 160.341L234.475 161.897C234.453 161.953 234.413 161.99 234.355 162.006C234.304 162.038 234.25 162.044 234.194 162.022L222.765 157.635C222.708 157.614 222.666 157.572 222.638 157.509C222.617 157.462 222.618 157.411 222.64 157.354L223.237 155.799C223.258 155.743 223.295 155.698 223.346 155.666C223.404 155.65 223.461 155.652 223.517 155.674L228.302 157.51C228.358 157.532 228.397 157.515 228.419 157.458L229.243 155.311C229.265 155.255 229.247 155.216 229.191 155.194L224.406 153.358C224.35 153.336 224.308 153.294 224.28 153.232C224.259 153.185 224.26 153.133 224.281 153.077L224.878 151.521C224.9 151.465 224.936 151.421 224.987 151.389C225.045 151.372 225.103 151.375 225.159 151.396L236.588 155.783C236.645 155.805 236.683 155.839 236.704 155.886C236.732 155.948 236.735 156.007 236.713 156.064L236.116 157.619C236.095 157.676 236.055 157.712 235.997 157.729C235.946 157.761 235.892 157.766 235.836 157.744L231.068 155.914C231.011 155.893 230.972 155.91 230.951 155.966L230.127 158.114C230.105 158.17 230.122 158.209 230.179 158.231L234.947 160.061Z" fill="white"/>
<path d="M213.89 177.28C214.492 176.434 215.234 175.932 216.116 175.774C216.992 175.626 217.852 175.853 218.699 176.454L223.658 179.98C224.505 180.581 225.002 181.32 225.15 182.195C225.291 183.08 225.061 183.946 224.459 184.792C223.858 185.639 223.116 186.141 222.233 186.299C221.351 186.456 220.486 186.235 219.64 185.633L214.68 182.108C213.834 181.506 213.34 180.763 213.199 179.877C213.058 178.992 213.289 178.126 213.89 177.28ZM215.366 178.329C215.128 178.664 215.049 179.015 215.129 179.382C215.218 179.757 215.45 180.077 215.824 180.343L220.931 183.973C221.305 184.239 221.678 184.349 222.052 184.303C222.435 184.264 222.745 184.078 222.983 183.743C223.221 183.409 223.295 183.054 223.206 182.68C223.119 182.322 222.889 182.01 222.515 181.744L217.408 178.114C217.034 177.848 216.659 177.73 216.283 177.759C215.91 177.805 215.604 177.995 215.366 178.329Z" fill="white"/>
<path d="M204.639 208.882C204.593 208.921 204.541 208.935 204.482 208.921C204.422 208.925 204.372 208.905 204.333 208.859L203.437 207.814C203.397 207.768 203.38 207.711 203.385 207.643C203.389 207.592 203.414 207.547 203.46 207.508L205.206 206.01C205.251 205.971 205.255 205.928 205.215 205.882L198.341 197.869C198.301 197.823 198.284 197.766 198.29 197.698C198.293 197.647 198.318 197.602 198.364 197.563L199.629 196.478C199.674 196.439 199.727 196.417 199.788 196.413C199.847 196.426 199.896 196.455 199.935 196.501L206.81 204.515C206.849 204.56 206.892 204.564 206.937 204.524L208.587 203.109C208.633 203.07 208.686 203.048 208.746 203.044C208.805 203.057 208.854 203.087 208.893 203.133L209.789 204.177C209.829 204.223 209.846 204.272 209.843 204.323C209.837 204.391 209.812 204.444 209.766 204.484L204.639 208.882Z" fill="white"/>
<path d="M179.737 212.228C180.666 211.764 181.557 211.669 182.41 211.945C183.252 212.226 183.905 212.831 184.37 213.759L187.089 219.203C187.554 220.131 187.645 221.017 187.364 221.859C187.072 222.707 186.462 223.363 185.533 223.827C184.604 224.291 183.714 224.385 182.861 224.11C182.008 223.834 181.349 223.232 180.885 222.303L178.165 216.86C177.701 215.931 177.615 215.043 177.906 214.195C178.198 213.348 178.808 212.692 179.737 212.228ZM180.547 213.848C180.18 214.031 179.945 214.304 179.842 214.665C179.745 215.038 179.799 215.429 180.004 215.84L182.805 221.445C183.01 221.855 183.288 222.128 183.639 222.263C183.995 222.409 184.357 222.39 184.724 222.207C185.091 222.023 185.323 221.745 185.421 221.373C185.512 221.016 185.456 220.633 185.251 220.223L182.45 214.618C182.245 214.207 181.969 213.926 181.624 213.775C181.273 213.64 180.914 213.664 180.547 213.848Z" fill="white"/>
<path d="M157.115 222.484C158.118 222.265 158.989 222.377 159.728 222.821C160.459 223.28 160.93 223.992 161.141 224.959L162.51 231.222C162.722 232.19 162.59 233.028 162.114 233.737C161.63 234.461 160.887 234.933 159.884 235.152C158.881 235.371 158.009 235.253 157.267 234.797C156.515 234.356 156.033 233.646 155.819 232.667L155.668 231.977C155.655 231.918 155.667 231.859 155.704 231.802C155.731 231.759 155.775 231.731 155.834 231.718L157.461 231.362C157.52 231.349 157.577 231.355 157.632 231.38C157.678 231.42 157.707 231.469 157.72 231.528L157.879 232.253C157.971 232.678 158.17 232.993 158.474 233.198C158.767 233.406 159.108 233.468 159.497 233.383C159.886 233.297 160.171 233.099 160.35 232.788C160.529 232.477 160.572 232.109 160.479 231.685L159.103 225.386C159.01 224.962 158.817 224.646 158.525 224.438C158.232 224.23 157.891 224.168 157.502 224.253C157.113 224.338 156.828 224.537 156.649 224.848C156.458 225.161 156.409 225.53 156.502 225.955L156.873 227.653C156.886 227.712 156.922 227.735 156.981 227.723L158.06 227.487C158.119 227.474 158.176 227.48 158.231 227.505C158.277 227.544 158.306 227.594 158.319 227.653L158.601 228.944C158.614 229.003 158.607 229.054 158.579 229.097C158.542 229.155 158.494 229.19 158.435 229.203L155.428 229.86C155.369 229.873 155.316 229.86 155.271 229.82C155.216 229.795 155.182 229.753 155.169 229.694L154.453 226.421C154.242 225.454 154.384 224.607 154.881 223.881C155.368 223.169 156.112 222.703 157.115 222.484Z" fill="white"/>
<path d="M130.923 226.9C131.044 226.904 131.121 226.967 131.153 227.088L132.531 232.331C132.554 232.38 132.583 232.405 132.619 232.406L133.579 232.436C133.639 232.438 133.67 232.409 133.672 232.348L133.831 227.207C133.833 227.147 133.859 227.094 133.908 227.047C133.946 227.012 133.995 226.995 134.055 226.997L135.72 227.048C135.78 227.05 135.834 227.07 135.881 227.108C135.916 227.157 135.933 227.212 135.931 227.272L135.553 239.509C135.551 239.569 135.531 239.617 135.494 239.652C135.444 239.699 135.389 239.721 135.329 239.719L131.926 239.614C131.286 239.594 130.73 239.42 130.257 239.092C129.771 238.775 129.405 238.328 129.157 237.753C128.896 237.189 128.777 236.545 128.8 235.821C128.823 235.073 128.988 234.432 129.294 233.898C129.6 233.364 130.017 232.966 130.545 232.705C130.593 232.694 130.613 232.658 130.602 232.598L128.997 227.094C128.985 227.07 128.98 227.039 128.981 227.003C128.985 226.895 129.053 226.842 129.186 226.847L130.923 226.9ZM133.412 237.848C133.472 237.85 133.503 237.821 133.505 237.761L133.616 234.158C133.618 234.098 133.589 234.067 133.529 234.065L132.424 234.031C131.99 234.018 131.635 234.176 131.359 234.505C131.071 234.835 130.918 235.289 130.9 235.868C130.882 236.447 131.007 236.91 131.274 237.257C131.528 237.615 131.873 237.801 132.307 237.814L133.412 237.848Z" fill="white"/>
<path d="M106.573 224.789C106.713 224.829 106.77 224.914 106.746 225.045L106.558 226.968C106.542 227.026 106.569 227.065 106.638 227.085L109.182 227.805C109.252 227.825 109.295 227.806 109.312 227.748L110.161 226.012C110.209 225.888 110.302 225.845 110.442 225.885L112.027 226.334C112.19 226.38 112.232 226.473 112.155 226.615L106.24 237.663C106.18 237.784 106.087 237.827 105.959 237.791L104.112 237.267C103.984 237.231 103.927 237.146 103.94 237.012L104.697 224.502L104.717 224.433C104.746 224.328 104.825 224.294 104.953 224.33L106.573 224.789ZM108.499 229.419C108.527 229.364 108.507 229.327 108.437 229.307L106.503 228.759C106.433 228.74 106.396 228.76 106.391 228.822L105.842 234.614C105.844 234.652 105.856 234.675 105.88 234.681C105.903 234.688 105.925 234.675 105.947 234.644L108.499 229.419Z" fill="white"/>
<path d="M78.5902 228.646C78.0357 228.326 77.6275 227.91 77.3657 227.397C77.0934 226.878 76.9838 226.306 77.0368 225.682C77.0794 225.052 77.2814 224.423 77.6429 223.795C78.1852 222.854 78.8732 222.24 79.7068 221.953C80.5299 221.661 81.3495 221.75 82.1655 222.22L83.4995 222.988C83.5518 223.018 83.593 223.007 83.6231 222.955L86.1358 218.592C86.1659 218.54 86.2139 218.505 86.2799 218.487C86.3294 218.474 86.3802 218.482 86.4326 218.512L87.8763 219.344C87.9286 219.374 87.9667 219.417 87.9905 219.472C87.9977 219.532 87.9863 219.588 87.9562 219.641L81.8373 230.265C81.8071 230.317 81.7673 230.35 81.7179 230.364C81.6519 230.381 81.5928 230.375 81.5405 230.345L78.5902 228.646ZM81.7354 223.874C81.3483 223.651 80.9553 223.62 80.5564 223.78C80.141 223.945 79.7857 224.284 79.4905 224.796C79.1892 225.32 79.0715 225.802 79.1374 226.244C79.1868 226.691 79.4051 227.025 79.7922 227.248L80.7338 227.79C80.7861 227.821 80.8273 227.81 80.8574 227.757L82.7103 224.54C82.7404 224.488 82.7293 224.447 82.677 224.416L81.7354 223.874Z" fill="white"/>
<path d="M54.9876 213.015C54.9457 213.059 54.8992 213.081 54.848 213.082C54.7797 213.083 54.7238 213.063 54.6804 213.021L53.481 211.864C53.4376 211.822 53.4196 211.771 53.427 211.711C53.4174 211.652 53.4335 211.6 53.4754 211.557L61.9734 202.744C62.0153 202.701 62.0704 202.679 62.1387 202.677C62.1899 202.676 62.2372 202.697 62.2807 202.739L63.48 203.895C63.5235 203.937 63.55 203.988 63.5596 204.048C63.5522 204.108 63.5275 204.159 63.4856 204.203L59.928 207.892C59.8861 207.935 59.8869 207.978 59.9303 208.02L61.5859 209.616C61.6294 209.658 61.6721 209.658 61.714 209.614L65.2715 205.925C65.3135 205.881 65.3685 205.859 65.4368 205.858C65.488 205.857 65.5354 205.877 65.5788 205.919L66.7782 207.076C66.8216 207.118 66.8482 207.168 66.8578 207.228C66.8503 207.288 66.8256 207.34 66.7837 207.383L58.2858 216.196C58.2439 216.239 58.1973 216.261 58.1461 216.262C58.0778 216.263 58.022 216.243 57.9785 216.201L56.7792 215.045C56.7357 215.003 56.7177 214.952 56.7252 214.892C56.7156 214.832 56.7317 214.781 56.7736 214.737L60.3186 211.061C60.3605 211.018 60.3597 210.975 60.3163 210.933L58.6607 209.337C58.6172 209.295 58.5745 209.295 58.5326 209.339L54.9876 213.015Z" fill="white"/>
<path d="M47.7364 187.796C47.7683 187.848 47.7815 187.903 47.7762 187.963C47.7543 188.02 47.7177 188.064 47.6664 188.096L43.4662 190.704L43.3834 190.776L38.6494 196.679C38.6352 196.702 38.6128 196.723 38.582 196.742C38.4897 196.799 38.4085 196.771 38.3385 196.659L37.4214 195.182C37.3513 195.069 37.358 194.965 37.4415 194.871L40.6791 191.262C40.7035 191.232 40.7093 191.207 40.6966 191.187C40.6839 191.166 40.6589 191.16 40.6218 191.169L35.9513 192.47C35.8296 192.503 35.7337 192.463 35.6637 192.351L34.7466 190.874C34.7084 190.812 34.7002 190.753 34.7222 190.697C34.7338 190.647 34.7819 190.61 34.8665 190.586L42.2562 188.961L42.358 188.919L46.5583 186.311C46.6096 186.279 46.6685 186.271 46.735 186.286C46.7848 186.298 46.8257 186.33 46.8575 186.381L47.7364 187.796Z" fill="white"/>
<path d="M29.5013 148.425C29.5083 148.485 29.4966 148.541 29.4662 148.593C29.4224 148.635 29.3705 148.659 29.3106 148.666L17.15 150.079C17.09 150.086 17.04 150.073 16.9998 150.041C16.9463 149.999 16.916 149.948 16.909 149.888L16.7168 148.233C16.7099 148.173 16.7283 148.122 16.7721 148.081C16.8025 148.028 16.8476 147.999 16.9076 147.992L29.0682 146.579C29.1281 146.573 29.1849 146.59 29.2384 146.633C29.2786 146.664 29.3022 146.71 29.3091 146.77L29.5013 148.425Z" fill="white"/>
<path d="M27.4782 124.875C27.3702 125.871 26.983 126.643 26.3165 127.19C25.65 127.737 24.8307 127.958 23.8584 127.853L23.3903 127.802C23.3303 127.795 23.2842 127.772 23.2521 127.732C23.2093 127.679 23.1912 127.622 23.1977 127.562L23.3752 125.924C23.3817 125.864 23.4109 125.819 23.4628 125.788C23.504 125.744 23.5547 125.725 23.6147 125.731L23.9748 125.77C24.4429 125.821 24.8333 125.748 25.1461 125.551C25.4602 125.342 25.6374 125.052 25.6777 124.68C25.7181 124.308 25.6192 123.987 25.3811 123.719C25.1311 123.449 24.784 123.29 24.3399 123.242C24.0278 123.208 23.7506 123.244 23.5082 123.352C23.2658 123.459 23.0296 123.622 22.7996 123.84C22.5695 124.058 22.2338 124.41 21.7925 124.896C21.2953 125.45 20.8586 125.894 20.4822 126.23C20.1071 126.554 19.6718 126.816 19.1764 127.017C18.6702 127.205 18.1051 127.266 17.4809 127.198C16.4847 127.09 15.725 126.704 15.2019 126.04C14.6788 125.376 14.4705 124.552 14.5772 123.568C14.6851 122.572 15.0844 121.801 15.7748 121.257C16.4533 120.711 17.3027 120.493 18.323 120.604L18.7551 120.651C18.8151 120.657 18.8665 120.687 18.9093 120.74C18.9414 120.78 18.9542 120.83 18.9477 120.89L18.7721 122.511C18.7656 122.571 18.7418 122.623 18.7006 122.667C18.6486 122.698 18.5927 122.71 18.5327 122.703L18.0645 122.653C17.5964 122.602 17.2113 122.682 16.9092 122.892C16.5965 123.089 16.4193 123.379 16.3776 123.763C16.3386 124.123 16.4388 124.432 16.6781 124.688C16.9055 124.944 17.2472 125.096 17.7033 125.145C18.1354 125.192 18.5145 125.112 18.8406 124.904C19.168 124.685 19.6348 124.244 20.241 123.581C20.8605 122.907 21.3644 122.403 21.7528 122.069C22.1292 121.733 22.5325 121.485 22.9627 121.325C23.3929 121.166 23.8901 121.116 24.4543 121.177C25.4745 121.288 26.2636 121.683 26.8214 122.363C27.3672 123.041 27.5861 123.879 27.4782 124.875Z" fill="white"/>
<path d="M28.9176 72.6294C28.8689 72.5265 28.8772 72.4242 28.9423 72.3226L29.8419 70.9202C29.8745 70.8693 29.9209 70.8417 29.9811 70.8373C30.0377 70.8162 30.0913 70.822 30.1421 70.8546L40.4468 77.4643C40.4976 77.4969 40.5303 77.5466 40.5449 77.6133C40.5558 77.6633 40.545 77.7138 40.5124 77.7646L39.6128 79.167C39.5802 79.2178 39.5357 79.2537 39.4791 79.2748C39.4189 79.2793 39.3634 79.2652 39.3126 79.2326L32.1176 74.6175C32.077 74.5914 32.0501 74.5885 32.0371 74.6089C32.0241 74.6292 32.0263 74.6593 32.0437 74.6992L33.6015 77.5702C33.6502 77.6732 33.6615 77.745 33.6355 77.7856C33.6094 77.8263 33.5394 77.846 33.4255 77.8446L30.1664 77.6259C30.1229 77.6267 30.0946 77.6372 30.0815 77.6576C30.0685 77.6779 30.0823 77.7011 30.123 77.7272L37.3179 82.3423C37.3687 82.3748 37.4014 82.4245 37.416 82.4912C37.4269 82.5413 37.4161 82.5917 37.3835 82.6425L36.484 84.0449C36.4514 84.0957 36.4068 84.1317 36.3502 84.1528C36.29 84.1572 36.2345 84.1431 36.1837 84.1105L25.8791 77.5008C25.8282 77.4682 25.7974 77.4268 25.7864 77.3768C25.7719 77.3101 25.7809 77.2513 25.8135 77.2005L26.713 75.7981C26.7782 75.6965 26.8677 75.6463 26.9816 75.6477L30.5367 75.841C30.5969 75.8366 30.6165 75.8061 30.5954 75.7496L28.9176 72.6294Z" fill="white"/>
<path d="M52.323 60.6334C52.2788 60.6745 52.2267 60.6982 52.1667 60.7046C52.1073 60.6939 52.057 60.6664 52.0159 60.6222L48.6493 57.0016L48.562 56.9343L41.8597 53.4231C41.8344 53.4136 41.8095 53.3956 41.7848 53.3691C41.7108 53.2895 41.7224 53.2045 41.8197 53.1141L43.0929 51.9302C43.1901 51.8398 43.2931 51.8265 43.4019 51.8902L47.5659 54.3737C47.5994 54.392 47.625 54.393 47.6427 54.3765C47.6604 54.3601 47.6613 54.3345 47.6455 54.2997L45.4708 49.9664C45.4151 49.8533 45.4359 49.7516 45.5332 49.6611L46.8064 48.4773C46.8594 48.4279 46.9156 48.4086 46.9751 48.4193C47.0262 48.4212 47.0718 48.4613 47.1116 48.5396L50.127 55.4792L50.1877 55.5711L53.5543 59.1917C53.5954 59.2359 53.6148 59.2921 53.6123 59.3604C53.6104 59.4116 53.5874 59.4577 53.5432 59.4988L52.323 60.6334Z" fill="white"/>
<path d="M87.0057 21.7261C87.6186 21.5424 88.2014 21.5316 88.7542 21.6937C89.3184 21.8523 89.8092 22.1652 90.2266 22.6325C90.6555 23.0964 90.9739 23.6753 91.1818 24.3692C91.4937 25.41 91.4674 26.3317 91.1029 27.1341C90.75 27.9331 90.1224 28.4678 89.2204 28.7381L87.7458 29.18C87.688 29.1973 87.6677 29.2349 87.6851 29.2927L89.1303 34.1154C89.1476 34.1732 89.1401 34.2322 89.1077 34.2923C89.0834 34.3374 89.0423 34.3686 88.9845 34.3859L87.3885 34.8642C87.3306 34.8815 87.2734 34.8798 87.2167 34.8589C87.1682 34.8231 87.1352 34.7762 87.1179 34.7184L83.5985 22.974C83.5812 22.9161 83.5846 22.8647 83.6089 22.8196C83.6413 22.7595 83.6864 22.7207 83.7443 22.7034L87.0057 21.7261ZM88.3136 27.2894C88.7415 27.1612 89.0342 26.897 89.1916 26.497C89.357 26.0818 89.3549 25.591 89.1851 25.0243C89.0118 24.446 88.7419 24.029 88.3754 23.7734C88.017 23.5026 87.6238 23.4314 87.1959 23.5596L86.155 23.8715C86.0972 23.8889 86.077 23.9265 86.0943 23.9843L87.16 27.5406C87.1773 27.5984 87.2149 27.6186 87.2727 27.6013L88.3136 27.2894Z" fill="white"/>
<path d="M115.062 27.7686C114.918 27.7759 114.836 27.7135 114.817 27.5815L114.378 25.6996C114.375 25.6393 114.337 25.611 114.265 25.6146L111.624 25.7472C111.552 25.7508 111.517 25.7828 111.52 25.8431L111.272 27.7595C111.267 27.8927 111.192 27.963 111.047 27.9702L109.401 28.0529C109.232 28.0613 109.162 27.9863 109.19 27.8277L111.253 15.4664C111.271 15.3326 111.346 15.2623 111.478 15.2556L113.396 15.1594C113.528 15.1527 113.61 15.2151 113.641 15.3465L116.932 27.4391L116.935 27.5114C116.941 27.6199 116.877 27.6775 116.744 27.6842L115.062 27.7686ZM111.754 23.9999C111.745 24.0608 111.777 24.0894 111.849 24.0858L113.857 23.985C113.929 23.9814 113.958 23.9497 113.943 23.89L112.607 18.2272C112.593 18.1916 112.574 18.1744 112.55 18.1756C112.526 18.1768 112.508 18.1958 112.498 18.2326L111.754 23.9999Z" fill="white"/>
<path d="M138.27 27.6082C137.288 27.413 136.553 26.9593 136.067 26.2472C135.58 25.5351 135.432 24.6995 135.623 23.7403L135.715 23.2785C135.727 23.2193 135.754 23.1754 135.796 23.147C135.853 23.109 135.911 23.0959 135.97 23.1077L137.587 23.4288C137.646 23.4406 137.689 23.4737 137.715 23.5281C137.755 23.573 137.769 23.6251 137.758 23.6843L137.687 24.0396C137.595 24.5014 137.634 24.8968 137.802 25.2257C137.982 25.5569 138.256 25.759 138.623 25.832C138.99 25.9049 139.318 25.8346 139.607 25.6211C139.898 25.3958 140.087 25.0641 140.174 24.626C140.235 24.3181 140.223 24.0387 140.137 23.7878C140.052 23.5369 139.91 23.2873 139.714 23.039C139.517 22.7906 139.196 22.4252 138.75 21.9427C138.242 21.3988 137.838 20.9246 137.537 20.5201C137.247 20.1179 137.024 19.6612 136.867 19.15C136.725 18.6293 136.714 18.061 136.837 17.4452C137.032 16.4624 137.483 15.7396 138.191 15.277C138.898 14.8144 139.737 14.6795 140.708 14.8724C141.691 15.0677 142.423 15.5332 142.905 16.269C143.389 16.9929 143.531 17.8581 143.331 18.8647L143.246 19.291C143.235 19.3502 143.2 19.3988 143.143 19.4367C143.101 19.4652 143.05 19.4736 142.991 19.4618L141.392 19.1442C141.333 19.1324 141.283 19.1041 141.243 19.0591C141.217 19.0047 141.21 18.9479 141.221 18.8887L141.313 18.4269C141.405 17.965 141.359 17.5744 141.177 17.255C141.008 16.9261 140.734 16.724 140.355 16.6487C140 16.5781 139.684 16.6507 139.407 16.8666C139.133 17.0705 138.951 17.3975 138.862 17.8475C138.777 18.2738 138.824 18.6585 139.002 19.0016C139.192 19.3471 139.59 19.8509 140.197 20.5131C140.813 21.1895 141.271 21.7359 141.57 22.1522C141.871 22.5567 142.083 22.9803 142.204 23.4229C142.325 23.8655 142.331 24.3651 142.22 24.9217C142.02 25.9282 141.557 26.6794 140.831 27.1752C140.107 27.6592 139.253 27.8035 138.27 27.6082Z" fill="white"/>
<path d="M160.956 32.7587C160.047 32.3376 159.44 31.7238 159.135 30.9173C158.829 30.1108 158.882 29.2638 159.293 28.3764L159.491 27.9491C159.517 27.8944 159.553 27.8582 159.601 27.8405C159.666 27.817 159.725 27.8179 159.78 27.8433L161.275 28.5358C161.33 28.5612 161.364 28.6034 161.376 28.6624C161.405 28.7156 161.406 28.7695 161.381 28.8243L161.229 29.153C161.031 29.5803 160.975 29.9735 161.062 30.3329C161.159 30.6973 161.377 30.9581 161.717 31.1154C162.057 31.2727 162.392 31.2815 162.723 31.142C163.058 30.9915 163.32 30.7135 163.508 30.3082C163.64 30.0233 163.694 29.7489 163.67 29.485C163.645 29.221 163.567 28.9452 163.434 28.6575C163.301 28.3697 163.075 27.939 162.755 27.3652C162.39 26.7171 162.109 26.161 161.911 25.697C161.725 25.2381 161.615 24.7417 161.583 24.2079C161.567 23.6682 161.691 23.1135 161.954 22.5438C162.376 21.6345 162.984 21.0382 163.781 20.7551C164.577 20.4719 165.424 20.5384 166.323 20.9544C167.232 21.3755 167.834 22.0003 168.129 22.8287C168.429 23.6462 168.364 24.5205 167.932 25.4518L167.75 25.8462C167.724 25.9009 167.68 25.9401 167.615 25.9636C167.567 25.9813 167.516 25.9774 167.461 25.952L165.982 25.2671C165.927 25.2418 165.886 25.2025 165.857 25.1493C165.844 25.0903 165.851 25.0334 165.876 24.9786L166.074 24.5513C166.272 24.1241 166.32 23.7337 166.217 23.3803C166.131 23.0209 165.912 22.7601 165.562 22.5977C165.233 22.4455 164.909 22.4417 164.589 22.5864C164.274 22.72 164.021 22.995 163.828 23.4113C163.645 23.8057 163.6 24.1906 163.692 24.566C163.796 24.9464 164.064 25.5299 164.498 26.3163C164.938 27.1188 165.255 27.7575 165.447 28.2325C165.645 28.6966 165.75 29.1579 165.764 29.6167C165.778 30.0754 165.665 30.5622 165.427 31.0772C164.996 32.0084 164.369 32.6295 163.546 32.9404C162.729 33.2404 161.865 33.1798 160.956 32.7587Z" fill="white"/>
<path d="M180.447 41.9302C180.399 41.8933 180.367 41.8457 180.351 41.7875C180.352 41.7272 180.371 41.6731 180.408 41.6253L187.896 31.9396C187.932 31.8919 187.976 31.8648 188.027 31.8582C188.095 31.8496 188.153 31.8637 188.2 31.9006L189.519 32.9196C189.566 32.9565 189.59 33.0052 189.589 33.0655C189.605 33.1237 189.594 33.1767 189.558 33.2245L182.07 42.9102C182.033 42.9579 181.981 42.9861 181.913 42.9948C181.862 43.0013 181.813 42.9861 181.765 42.9492L180.447 41.9302Z" fill="white"/>
<path d="M198.546 56.6804C197.888 55.8778 197.598 55.03 197.677 54.1371C197.764 53.2535 198.209 52.4823 199.012 51.8236L203.716 47.9634C204.518 47.3047 205.361 47.0188 206.245 47.1058C207.136 47.2022 207.911 47.6517 208.57 48.4543C209.229 49.2569 209.518 50.1047 209.439 50.9976C209.359 51.8905 208.918 52.6663 208.116 53.325L203.412 57.1853C202.61 57.844 201.763 58.1252 200.871 58.0288C199.98 57.9325 199.205 57.483 198.546 56.6804ZM199.946 55.5315C200.207 55.8488 200.525 56.0174 200.9 56.0372C201.285 56.0493 201.655 55.9099 202.009 55.6188L206.853 51.6437C207.208 51.3526 207.412 51.021 207.466 50.6489C207.529 50.269 207.43 49.9205 207.17 49.6032C206.909 49.2859 206.587 49.1211 206.202 49.109C205.834 49.0985 205.473 49.2387 205.118 49.5298L200.275 53.505C199.92 53.796 199.707 54.1268 199.636 54.4973C199.583 54.8694 199.686 55.2142 199.946 55.5315Z" fill="white"/>
<path d="M226.118 73.0739C226.173 73.0486 226.225 73.0447 226.273 73.0624C226.337 73.0859 226.382 73.125 226.407 73.1798L227.099 74.6753C227.125 74.73 227.123 74.784 227.095 74.8372C227.082 74.8962 227.048 74.9384 226.994 74.9638L215.885 80.1083C215.83 80.1336 215.77 80.1346 215.706 80.111C215.658 80.0934 215.622 80.0572 215.596 80.0024L214.797 78.2769C214.746 78.1673 214.768 78.0708 214.862 77.9872L220.696 72.3119C220.724 72.2857 220.725 72.2587 220.699 72.2309C220.689 72.209 220.667 72.2057 220.634 72.2209L213.723 75.4412C213.669 75.4666 213.609 75.4675 213.545 75.444C213.497 75.4263 213.46 75.3901 213.435 75.3353L212.742 73.8399C212.717 73.7851 212.711 73.7282 212.723 73.6692C212.752 73.616 212.793 73.5767 212.848 73.5514L223.957 68.4069C224.012 68.3815 224.063 68.3776 224.111 68.3953C224.176 68.4188 224.22 68.458 224.246 68.5128L225.03 70.2054C225.08 70.3149 225.058 70.4115 224.964 70.4951L219.187 76.164C219.159 76.1902 219.151 76.2142 219.161 76.2362C219.187 76.2639 219.216 76.2702 219.249 76.255L226.118 73.0739Z" fill="white"/>
</svg>
